<?xml version="1.0" standalone="no"?>
<!DOCTYPE svg PUBLIC "-//W3C//DTD SVG 1.1//EN" "http://www.w3.org/Graphics/SVG/1.1/DTD/svg11.dtd" >
<svg xmlns="http://www.w3.org/2000/svg" xmlns:xlink="http://www.w3.org/1999/xlink" version="1.1">
<metadata>
Created by FontForge 20170731 at Thu Mar 20 14:25:13 2003
 By Aleksey,,,
Copyright (c) Cornel Windlin, 2003. All rights reserved.
</metadata>
<defs>
<font id="AlphaHeadlinePro-Bold" horiz-adv-x="670" >
  <font-face 
    font-family="AlphaHeadlinePro-Bold"
    font-weight="400"
    font-stretch="normal"
    units-per-em="1000"
    panose-1="2 0 5 0 3 0 0 2 0 4"
    ascent="801"
    descent="-199"
    x-height="513"
    cap-height="712"
    bbox="-11 -238 924 959"
    underline-thickness="62"
    underline-position="-305"
    unicode-range="U+000D-FB02"
  />
<missing-glyph horiz-adv-x="594" 
d="M80 0v712h434v-712h-434zM175 95h244v522h-244v-522z" />
    <glyph glyph-name=".notdef" horiz-adv-x="594" 
d="M80 0v712h434v-712h-434zM175 95h244v522h-244v-522z" />
    <glyph glyph-name=".notdef" horiz-adv-x="594" 
d="M80 0v712h434v-712h-434zM175 95h244v522h-244v-522z" />
    <glyph glyph-name=".null" horiz-adv-x="0" 
 />
    <glyph glyph-name="nonmarkingreturn" horiz-adv-x="333" 
 />
    <glyph glyph-name="CR" unicode="&#xd;" horiz-adv-x="270" 
 />
    <glyph glyph-name="space" unicode=" " horiz-adv-x="270" 
 />
    <glyph glyph-name="exclam" unicode="!" horiz-adv-x="323" 
d="M136 206q-26 0 -32 32l-27 146v296q0 12 9.5 22t22.5 10h106q13 0 22 -10t9 -22v-296l-27 -146q-6 -32 -34 -32h-49zM120 0q-13 0 -22.5 10t-9.5 22v83q0 12 9.5 22t22.5 10h84q12 0 21.5 -10t9.5 -22v-83q0 -12 -9.5 -22t-22.5 -10h-83z" />
    <glyph glyph-name="quotedbl" unicode="&#x22;" horiz-adv-x="438" 
d="M297 429q-15 0 -25 10.5t-12 26.5l-20 206v4q0 15 10.5 25.5t26.5 10.5h66q16 0 26.5 -10.5t10.5 -25.5v-4l-20 -206q-2 -16 -12 -26.5t-25 -10.5h-26zM114 429q-15 0 -25.5 10.5t-11.5 26.5l-20 206v4q0 15 10.5 25.5t26.5 10.5h66q16 0 26.5 -10.5t10.5 -25.5v-4
l-20 -206q-1 -16 -11.5 -26.5t-25.5 -10.5h-26z" />
    <glyph glyph-name="numbersign" unicode="#" 
d="M132 159l25 119h-95l22 101h95l24 114h-96l22 100h95l25 119h96l-25 -119h99l24 119h96l-25 -119h94l-22 -100h-94l-24 -114h95l-22 -101h-94l-25 -119h-96l25 119h-99l-24 -119h-96zM274 379h99l24 114h-99z" />
    <glyph glyph-name="dollar" unicode="$" 
d="M277 -67v81h-6q-69 0 -121 46t-60 115l117 31l4 -20q9 -47 53 -47h140q20 0 35 15t15 36v35q0 16 -8.5 29t-23.5 17l-215 58q-51 13 -83 59t-32 103v32q0 76 49 125t124 49h13v80h112v-80h10q69 0 120.5 -46t59.5 -113l-117 -32l-5 19q-13 48 -52 48h-139q-22 0 -37 -15
t-15 -37v-24q0 -48 51 -61l180 -46q57 -15 94 -60t37 -105v-25q0 -77 -51.5 -131.5t-128.5 -54.5h-7v-81h-113z" />
    <glyph glyph-name="percent" unicode="%" horiz-adv-x="673" 
d="M206 -55l-100 45l362 776l100 -46zM473 114q-17 0 -29 12t-12 29v97q0 17 12 29t29 12h102q17 0 29 -12t12 -29v-97q0 -17 -12 -29t-29 -12h-102zM99 432q-17 0 -29 12t-12 29v97q0 17 12 29t29 12h102q17 0 29 -12t12 -29v-97q0 -17 -12 -29t-29 -12h-102z" />
    <glyph glyph-name="ampersand" unicode="&#x26;" horiz-adv-x="691" 
d="M261 0q-80 0 -134 56t-54 137v26q0 96 87 151q-52 51 -52 127v33q0 79 51 130.5t130 51.5h34q79 0 134 -47t55 -119v-41q0 -97 -112 -154l99 -78l44 57l102 -71l-46 -63l61 -48l-83 -98l-55 43q-43 -53 -84 -73t-106 -20h-71zM254 129h89q15 0 22.5 1t20 8.5t27.5 22.5
l9 9l-151 115l-37 -18q-33 -16 -33 -48v-35q0 -23 15.5 -39t37.5 -16zM291 435l39 18q52 23 52 66v9q0 26 -15 40.5t-37 14.5h-39q-22 0 -38 -16t-16 -39v-13q0 -39 28 -60z" />
    <glyph glyph-name="quotesingle" unicode="'" horiz-adv-x="256" 
d="M114 429q-15 0 -25.5 10.5t-11.5 26.5l-20 206v4q0 15 10.5 25.5t26.5 10.5h66q16 0 26.5 -10.5t10.5 -25.5v-4l-20 -206q-1 -16 -11.5 -26.5t-25.5 -10.5h-26z" />
    <glyph glyph-name="parenleft" unicode="(" horiz-adv-x="384" 
d="M248 -217q-84 136 -121.5 259.5t-37.5 259.5q0 137 37.5 260.5t121.5 259.5l82 -49q-109 -233 -109 -471t109 -469z" />
    <glyph glyph-name="parenright" unicode=")" horiz-adv-x="384" 
d="M137 -217l-82 50q109 231 109 469t-109 471l82 49q84 -136 121.5 -259.5t37.5 -260.5q0 -136 -37.5 -259.5t-121.5 -259.5z" />
    <glyph glyph-name="asterisk" unicode="*" horiz-adv-x="512" 
d="M176 334q-7 0 -15 5l-38 28q-11 8 -11 21q0 8 7 17l79 89l-116 26q-20 5 -20 25q0 5 1 8l14 44q7 18 25 18q4 0 10 -2l110 -48l-12 119v3q0 11 7.5 18t18.5 7h47q11 0 18.5 -7t7.5 -18l-1 -3l-11 -119l109 47q9 3 11 3q17 0 24 -19l14 -43q2 -6 2 -9q0 -20 -20 -25
l-118 -26l80 -89q6 -7 6 -17q0 -13 -11 -21l-37 -27q-8 -5 -16 -5q-14 0 -22 12l-61 104l-60 -103q-8 -13 -22 -13z" />
    <glyph glyph-name="plus" unicode="+" horiz-adv-x="552" 
d="M229 118v190h-191v95h191v191h95v-191h189v-95h-189v-190h-95z" />
    <glyph glyph-name="comma" unicode="," horiz-adv-x="298" 
d="M75 -159q-7 0 -17 5l-37 19q-16 9 -16 26q0 7 3 15l105 251q8 19 27 19q8 0 15 -4l75 -37q19 -9 19 -26q0 -7 -5 -15l-142 -234q-11 -19 -27 -19z" />
    <glyph glyph-name="hyphen" unicode="-" horiz-adv-x="458" 
d="M69 308v107h320v-107h-320z" />
    <glyph glyph-name="period" unicode="." horiz-adv-x="298" 
d="M98 0q-17 0 -29 11.5t-12 27.5v102q0 16 12 27.5t29 11.5h102q17 0 29 -11.5t12 -27.5v-102q0 -16 -12 -27.5t-29 -11.5h-102z" />
    <glyph glyph-name="slash" unicode="/" horiz-adv-x="552" 
d="M143 -80l-85 38l389 835l85 -39z" />
    <glyph glyph-name="zero" unicode="0" 
d="M270 0q-79 0 -135 55.5t-56 134.5v332q0 79 56 134.5t135 55.5h130q78 0 134 -55.5t56 -134.5v-332q0 -79 -56 -134.5t-134 -55.5h-130zM263 129h143q22 0 38 16.5t16 38.5v344q0 22 -16 38.5t-38 16.5h-143q-22 0 -38 -16t-16 -39v-344q0 -23 16 -39t38 -16z" />
    <glyph glyph-name="one" unicode="1" 
d="M148 0v123h130v466h-113v123h243v-589h114v-123h-374z" />
    <glyph glyph-name="two" unicode="2" 
d="M79 0v126q0 120 82 168l248 146q52 32 52 75v13q0 22 -16 38.5t-38 16.5h-142q-20 0 -31.5 -12t-22.5 -39l-7 -18l-125 34l16 42q20 53 66.5 87.5t109.5 34.5h138q79 0 130 -51.5t51 -130.5v-33q0 -99 -120 -169l-199 -116q-40 -23 -48.5 -36.5t-8.5 -46.5h376v-129h-511
z" />
    <glyph glyph-name="three" unicode="3" 
d="M270 0q-73 0 -127 48t-63 119l122 32l7 -19q10 -27 21.5 -39t32.5 -12h143q22 0 38 16.5t16 38.5v60q0 22 -16 38t-38 16h-125v130h125q22 0 38 16t16 38v46q0 22 -16 38.5t-38 16.5h-144q-40 0 -55 -51l-6 -19l-122 33q8 71 62.5 118.5t127.5 47.5h131q78 0 134 -55.5
t56 -134.5v-34q0 -70 -47 -125q47 -57 47 -125v-48q0 -79 -56 -134.5t-134 -55.5h-130z" />
    <glyph glyph-name="four" unicode="4" 
d="M388 0v162h-313v113l317 437h126v-423h78v-127h-78v-162h-130zM230 289h158v216z" />
    <glyph glyph-name="five" unicode="5" 
d="M262 0q-64 0 -115 38t-68 98l123 40q17 -47 53 -47h151q22 0 38 16.5t16 38.5v94q0 22 -16 37.5t-38 15.5h-152q-46 0 -46 -40l-129 41l83 380h393v-129h-294l-26 -123q8 2 25 2h140q78 0 134 -56t56 -135v-81q0 -79 -56 -134.5t-134 -55.5h-138z" />
    <glyph glyph-name="six" unicode="6" 
d="M270 0q-79 0 -135 55.5t-56 134.5v332q0 79 56 134.5t135 55.5h130q68 0 120.5 -44t65.5 -111l-119 -42l-6 17q-10 26 -22 38.5t-33 12.5h-143q-22 0 -38 -16t-16 -39v-81q18 16 61 16h130q78 0 134 -55.5t56 -134.5v-83q0 -79 -56 -134.5t-134 -55.5h-130zM263 129h143
q22 0 38 16.5t16 38.5v97q0 22 -16 37.5t-38 15.5h-143q-22 0 -37.5 -15.5t-15.5 -38.5v-96q0 -23 15.5 -39t37.5 -16z" />
    <glyph glyph-name="seven" unicode="7" 
d="M169 0l276 583h-366v129h511v-123l-280 -589h-141z" />
    <glyph glyph-name="eight" unicode="8" 
d="M270 0q-79 0 -135 55.5t-56 134.5v48q0 71 48 125q-48 55 -48 125v34q0 79 56 134.5t135 55.5h130q78 0 134 -55.5t56 -134.5v-34q0 -70 -47 -125q47 -57 47 -125v-48q0 -79 -56 -134.5t-134 -55.5h-130zM263 129h143q22 0 38 16.5t16 38.5v60q0 22 -16 38t-38 16h-143
q-22 0 -37.5 -16t-15.5 -38v-60q0 -23 15.5 -39t37.5 -16zM263 428h143q22 0 38 16t16 38v46q0 23 -16 39t-38 16h-143q-22 0 -38 -16t-16 -39v-46q0 -22 15.5 -38t38.5 -16z" />
    <glyph glyph-name="nine" unicode="9" 
d="M270 0q-69 0 -122 44t-66 111l121 42l6 -17q10 -27 21.5 -39t32.5 -12h143q22 0 38 16.5t16 38.5v98q-23 -17 -60 -17h-130q-79 0 -135 55.5t-56 134.5v67q0 79 56 134.5t135 55.5h130q78 0 134 -55.5t56 -134.5v-332q0 -79 -56 -134.5t-134 -55.5h-130zM263 395h143
q22 0 38 16t16 38v80q0 22 -16 38t-38 16h-143q-22 0 -38 -16t-16 -39v-79q0 -23 15.5 -38.5t38.5 -15.5z" />
    <glyph glyph-name="colon" unicode=":" horiz-adv-x="298" 
d="M98 318q-17 0 -29 11t-12 27v103q0 16 12 27.5t29 11.5h102q17 0 29 -11.5t12 -27.5v-103q0 -16 -12 -27t-29 -11h-102zM98 0q-17 0 -29 11.5t-12 27.5v102q0 16 12 27.5t29 11.5h102q17 0 29 -11.5t12 -27.5v-102q0 -16 -12 -27.5t-29 -11.5h-102z" />
    <glyph glyph-name="semicolon" unicode=";" horiz-adv-x="298" 
d="M75 -159q-7 0 -17 5l-37 19q-16 9 -16 26q0 7 3 15l105 251q8 19 27 19q8 0 15 -4l75 -37q19 -9 19 -26q0 -7 -5 -15l-142 -234q-11 -19 -27 -19zM126 318q-17 0 -29 11t-12 27v103q0 16 12 27.5t29 11.5h102q17 0 29 -11.5t12 -27.5v-103q0 -16 -12 -27t-29 -11h-102z
" />
    <glyph glyph-name="less" unicode="&#x3c;" horiz-adv-x="552" 
d="M383 91q-17 0 -30 13l-241 224q-11 11 -11 28t11 28l241 223q16 14 30 14q12 0 26 -12l27 -25q14 -12 14 -30q0 -14 -13 -28l-155 -170l155 -171q13 -14 13 -28q0 -15 -14 -29l-27 -26q-11 -11 -26 -11z" />
    <glyph glyph-name="equal" unicode="=" horiz-adv-x="552" 
d="M77 395v95h398v-95h-398zM77 220v95h398v-95h-398z" />
    <glyph glyph-name="greater" unicode="&#x3e;" horiz-adv-x="552" 
d="M168 91q-15 0 -26 11l-26 26q-15 15 -15 29t13 28l155 171l-155 170q-13 14 -13 28q0 15 15 30l26 25q12 12 26 12t30 -14l241 -223q12 -12 12 -28t-12 -28l-241 -224q-13 -13 -30 -13z" />
    <glyph glyph-name="question" unicode="?" horiz-adv-x="584" 
d="M200 206q-16 0 -16 16v13q0 48 23 83t70 73l64 52q4 3 12 9.5t11 9t8.5 7.5t7.5 8.5t5 9t4 11t1 12.5v18q0 23 -16 39t-38 16h-109q-46 0 -61 -51l-6 -19l-121 33q9 71 62.5 118.5t125.5 47.5h110q79 0 130.5 -51.5t51.5 -130.5v-30q0 -75 -84 -141l-97 -76
q-28 -23 -28 -48v-13q0 -16 -16 -16h-94zM206 0q-13 0 -22.5 10t-9.5 22v83q0 12 9.5 22t22.5 10h83q13 0 22.5 -10t9.5 -22v-83q0 -12 -9.5 -22t-21.5 -10h-84z" />
    <glyph glyph-name="at" unicode="@" horiz-adv-x="812" 
d="M308 -3q-97 0 -168 70.5t-71 167.5v243q0 96 71 166.5t168 70.5h199q96 0 166.5 -70.5t70.5 -166.5v-168q0 -56 -41 -88.5t-95 -32.5h-25q-48 0 -85 31q-38 -31 -81 -31h-61q-50 0 -86 35.5t-36 87.5v87q0 52 36 88t86 36h184v-212q0 -16 12 -25.5t30 -9.5h25
q19 0 32 9.5t13 25.5v175q0 56 -40 96.5t-96 40.5h-219q-56 0 -96.5 -41t-40.5 -98v-258q0 -56 40.5 -96.5t96.5 -40.5h177q45 0 72.5 12.5t57.5 42.5l9 9l68 -60l-12 -14q-71 -82 -199 -82h-162zM355 278h64q13 0 22.5 9.5t9.5 22.5v124h-96q-13 0 -23 -9.5t-10 -22.5v-92
q0 -13 10 -22.5t23 -9.5z" />
    <glyph glyph-name="A" unicode="A" horiz-adv-x="600" 
d="M45 0v51q0 44 11 79l182 582h124l182 -582q11 -35 11 -79v-51h-125v52q0 18 -2 24l-15 55h-226l-15 -55q-2 -6 -2 -24v-52h-125zM226 259h148l-74 238z" />
    <glyph glyph-name="B" unicode="B" horiz-adv-x="676" 
d="M95 0v712h321q78 0 134 -55.5t56 -134.5v-32q0 -71 -47 -126q47 -53 47 -124v-50q0 -79 -56 -134.5t-134 -55.5h-321zM225 129h197q22 0 38 16t16 39v61q0 22 -16 38t-38 16h-197v-170zM225 429h197q23 0 38.5 16t15.5 39v44q0 23 -16 39t-38 16h-197v-154z" />
    <glyph glyph-name="C" unicode="C" horiz-adv-x="636" 
d="M268 0q-79 0 -134.5 55.5t-55.5 134.5v332q0 79 55.5 134.5t134.5 55.5h132q72 0 125.5 -47.5t63.5 -118.5l-122 -33l-7 19q-10 27 -21.5 39t-32.5 12h-145q-22 0 -38 -16t-16 -39v-344q0 -23 16 -39t38 -16h143q42 0 56 51l5 19l122 -32q-9 -72 -62.5 -119.5
t-125.5 -47.5h-131z" />
    <glyph glyph-name="D" unicode="D" horiz-adv-x="684" 
d="M95 0v712h321q78 0 134 -55.5t56 -134.5v-332q0 -79 -56 -134.5t-134 -55.5h-321zM225 129h197q22 0 38 16t16 39v344q0 23 -16 39t-38 16h-197v-454z" />
    <glyph glyph-name="E" unicode="E" horiz-adv-x="671" 
d="M95 0v712h511v-129h-381v-153h291v-131h-291v-170h381v-129h-511z" />
    <glyph glyph-name="F" unicode="F" horiz-adv-x="636" 
d="M95 0v712h511v-129h-381v-153h291v-131h-291v-299h-130z" />
    <glyph glyph-name="G" unicode="G" horiz-adv-x="657" 
d="M268 0q-79 0 -134.5 55.5t-55.5 134.5v332q0 79 55.5 134.5t134.5 55.5h132q72 0 125.5 -47.5t63.5 -118.5l-122 -33l-7 19q-10 27 -21.5 39t-32.5 12h-145q-22 0 -38 -16t-16 -39v-344q0 -23 16 -39t38 -16h144q22 0 38 16.5t16 38.5v115h-98v122h228v-231
q0 -79 -56 -134.5t-134 -55.5h-131z" />
    <glyph glyph-name="H" unicode="H" horiz-adv-x="701" 
d="M95 0v712h130v-283h251v283h130v-712h-130v299h-251v-299h-130z" />
    <glyph glyph-name="I" unicode="I" horiz-adv-x="487" 
d="M78 0v129h100v454h-100v129h331v-129h-100v-454h100v-129h-331z" />
    <glyph glyph-name="J" unicode="J" horiz-adv-x="617" 
d="M218 0q-72 0 -125.5 47.5t-62.5 119.5l122 32l5 -19q13 -51 54 -51h144q22 0 38 16.5t16 38.5v399h-191v129h321v-522q0 -79 -55.5 -134.5t-134.5 -55.5h-131z" />
    <glyph glyph-name="K" unicode="K" horiz-adv-x="653" 
d="M95 0v712h130v-304l224 304h148l-200 -286l167 -257q39 -60 39 -145v-24h-128v24q0 30 -3 43.5t-15 31.5l-140 213l-92 -135v-177h-130z" />
    <glyph glyph-name="L" unicode="L" horiz-adv-x="606" 
d="M95 0v712h130v-583h346v-129h-476z" />
    <glyph glyph-name="M" unicode="M" horiz-adv-x="798" 
d="M95 0v712h127l177 -416l176 416h128v-712h-130v372l-131 -272h-85l-131 272v-372h-131z" />
    <glyph glyph-name="N" unicode="N" horiz-adv-x="701" 
d="M95 0v712h126l255 -446v446h130v-712h-123l-258 458v-458h-130z" />
    <glyph glyph-name="O" unicode="O" horiz-adv-x="661" 
d="M265 0q-79 0 -134.5 55.5t-55.5 134.5v332q0 79 55.5 134.5t134.5 55.5h131q78 0 134 -55.5t56 -134.5v-332q0 -79 -56 -134.5t-134 -55.5h-131zM258 129h143q23 0 39 16.5t16 38.5v344q0 22 -16 38.5t-39 16.5h-143q-22 0 -38 -16t-16 -39v-344q0 -23 16 -39t38 -16z
" />
    <glyph glyph-name="P" unicode="P" horiz-adv-x="641" 
d="M95 0v712h321q78 0 134 -55.5t56 -134.5v-41q0 -78 -56 -134t-134 -56h-191v-291h-130zM225 421h197q22 0 38 15.5t16 38.5v53q0 23 -16 39t-38 16h-197v-162z" />
    <glyph glyph-name="Q" unicode="Q" horiz-adv-x="661" 
d="M572 -71l-91 91q-38 -20 -85 -20h-131q-79 0 -134.5 55.5t-55.5 134.5v332q0 79 55.5 134.5t134.5 55.5h131q78 0 134 -55.5t56 -134.5v-332q0 -47 -22 -89l91 -90zM258 129h143q23 0 39 16.5t16 38.5v344q0 22 -16 38.5t-39 16.5h-143q-22 0 -38 -16t-16 -39v-344
q0 -23 16 -39t38 -16z" />
    <glyph glyph-name="R" unicode="R" horiz-adv-x="676" 
d="M95 0v712h321q78 0 134 -55.5t56 -134.5v-41q0 -61 -35 -109.5t-90 -68.5l84 -132q28 -43 34.5 -68t6.5 -69v-34h-129v53q0 23 -16 48l-120 190h-116v-291h-130zM225 421h197q22 0 38 15.5t16 38.5v53q0 23 -16 39t-38 16h-197v-162z" />
    <glyph glyph-name="S" unicode="S" horiz-adv-x="638" 
d="M253 0q-73 0 -127 47.5t-63 119.5l122 32l6 -19q15 -51 55 -51h145q22 0 37.5 16t15.5 39v35q0 17 -9.5 30.5t-24.5 17.5l-225 61q-53 14 -86.5 62t-33.5 107v33q0 79 51.5 130.5t130.5 51.5h140q72 0 125.5 -47.5t62.5 -118.5l-121 -33l-6 19q-15 51 -54 51h-145
q-22 0 -38 -16t-16 -39v-25q0 -49 53 -63l187 -48q60 -15 98 -62.5t38 -110.5v-26q0 -81 -53.5 -137t-133.5 -56h-131z" />
    <glyph glyph-name="T" unicode="T" horiz-adv-x="581" 
d="M225 0v583h-190v129h511v-129h-191v-583h-130z" />
    <glyph glyph-name="U" unicode="U" horiz-adv-x="667" 
d="M268 0q-79 0 -134.5 55.5t-55.5 134.5v522h129v-528q0 -23 16 -39t38 -16h143q22 0 38.5 16.5t16.5 38.5v528h130v-522q0 -79 -56 -134.5t-134 -55.5h-131z" />
    <glyph glyph-name="V" unicode="V" horiz-adv-x="570" 
d="M223 0l-171 544q-2 6 -6 18.5t-5 16t-3.5 12.5t-3 13.5t-2 13t-1.5 16.5t-0.5 19t-0.5 26v33h125v-49q0 -29 6 -51l124 -415l124 415q6 22 6 51v49h125v-33q0 -15 -0.5 -26t-0.5 -19t-1.5 -16.5t-2 -13t-3 -13.5t-3.5 -12.5t-5 -16t-6 -18.5l-171 -544h-124z" />
    <glyph glyph-name="W" unicode="W" horiz-adv-x="695" 
d="M153 0l-89 544q-3 19 -6.5 37.5t-4.5 23.5t-2 17t-1 22.5v34.5v33h125v-33q0 -4 7 -67l52 -341l85 332h58l84 -332l52 341q0 2 2.5 14.5t4 26.5t1.5 26v33h124v-33q0 -29 -0.5 -43t-1.5 -20.5t-5 -28.5t-7 -43l-89 -544h-117l-77 296l-78 -296h-117z" />
    <glyph glyph-name="X" unicode="X" horiz-adv-x="648" 
d="M65 0v88q0 20 3 30t15 26l155 212l-155 212q-12 16 -15 26t-3 30v88h125v-69q0 -12 5 -18l125 -170l126 170q5 6 5 18v69h124v-88q0 -33 -17 -56l-156 -212l156 -212q17 -23 17 -56v-88h-124v69q0 12 -5 18l-126 170l-125 -170q-5 -6 -5 -18v-69h-125z" />
    <glyph glyph-name="Y" unicode="Y" horiz-adv-x="590" 
d="M231 0v278l-173 290q-18 30 -18 56v88h125v-69q0 -9 4 -17l126 -238l127 238q4 8 4 17v69h124v-88q0 -28 -17 -56l-172 -290v-278h-130z" />
    <glyph glyph-name="Z" unicode="Z" horiz-adv-x="661" 
d="M75 0v125l352 458h-352v129h511v-126l-345 -457h345v-129h-511z" />
    <glyph glyph-name="bracketleft" unicode="[" horiz-adv-x="393" 
d="M107 -179v971h216v-100h-115v-771h115v-100h-216z" />
    <glyph glyph-name="backslash" unicode="\" horiz-adv-x="556" 
d="M413 -80l-389 834l84 39l390 -835z" />
    <glyph glyph-name="bracketright" unicode="]" horiz-adv-x="393" 
d="M70 -179v100h115v771h-115v100h216v-971h-216z" />
    <glyph glyph-name="asciicircum" unicode="^" horiz-adv-x="552" 
d="M153 260q-19 0 -31 14l-19 21q-13 13 -13 30q0 15 13 28l93 102q10 12 29 12h100q19 0 29 -12l93 -102q13 -13 13 -28q0 -17 -13 -30l-19 -21q-12 -14 -31 -14q-18 0 -31 12l-91 81l-91 -81q-13 -12 -31 -12z" />
    <glyph glyph-name="underscore" unicode="_" horiz-adv-x="551" 
d="M45 0v95h461v-95h-461z" />
    <glyph glyph-name="grave" unicode="`" horiz-adv-x="439" 
d="M299 564q-9 0 -16 4l-169 80q-16 7 -16 22q0 7 5 17l29 52q10 18 23 18q7 0 17 -7l153 -108q15 -12 15 -25q0 -7 -4 -14l-13 -23q-9 -16 -24 -16z" />
    <glyph glyph-name="a" unicode="a" horiz-adv-x="562" 
d="M210 -3q-75 0 -117.5 44t-42.5 112q0 53 30.5 96t90.5 54l170 30q31 6 31 39q0 12 -10 21.5t-29 9.5h-119q-14 0 -23 -12.5t-11 -25.5l-2 -13l-112 27q0 6 2 15t11.5 32.5t24 41.5t44.5 33t69 15h130q63 0 102 -41.5t39 -109.5v-365h-121v49q-9 -23 -38 -37.5t-61 -14.5
h-58zM209 111h99q57 0 57 68v55q-7 -8 -31 -12l-132 -25q-31 -7 -31 -40q0 -18 10.5 -32t27.5 -14z" />
    <glyph glyph-name="b" unicode="b" horiz-adv-x="596" 
d="M299 -3q-30 0 -58.5 14t-39.5 38v-49h-121v712h131v-234q27 38 85 38h92q62 0 105 -43t43 -105v-223q0 -61 -43 -104.5t-105 -43.5h-89zM273 111h62q44 0 59.5 16.5t15.5 55.5v145q0 36 -18 55.5t-46 19.5h-66q-42 0 -57 -16t-15 -54v-146q0 -36 18.5 -56t46.5 -20z" />
    <glyph glyph-name="c" unicode="c" horiz-adv-x="541" 
d="M235 -3q-73 0 -124 51t-51 124v169q0 73 51 124t124 51h93q66 0 115.5 -44t58.5 -109l-112 -30l-6 18q-15 46 -50 46h-106q-20 0 -34.5 -14.5t-14.5 -35.5v-181q0 -21 14.5 -35.5t34.5 -14.5h104q38 0 51 46l5 18l112 -30q-8 -65 -57.5 -109t-115.5 -44h-92z" />
    <glyph glyph-name="d" unicode="d" horiz-adv-x="596" 
d="M208 -3q-62 0 -105 43.5t-43 104.5v223q0 62 43 105t105 43h92q58 0 85 -38v234h131v-712h-121v49q-11 -24 -39.5 -38t-58.5 -14h-89zM261 111h62q28 0 46.5 20t18.5 56v146q0 38 -15 54t-57 16h-66q-28 0 -46 -19.5t-18 -55.5v-145q0 -39 15.5 -55.5t59.5 -16.5z" />
    <glyph glyph-name="e" unicode="e" horiz-adv-x="571" 
d="M235 -3q-73 0 -124 51t-51 124v169q0 73 50 124t122 51h113q72 0 118.5 -50.5t46.5 -124.5v-107q0 -11 -8.5 -19t-19.5 -8h-303v-46q0 -21 14.5 -35.5t34.5 -14.5h117q36 0 51 46l3 9l112 -25q-11 -62 -59.5 -103t-111.5 -41h-105zM179 320h212v32q0 50 -40 50h-126
q-20 0 -33 -14.5t-13 -35.5v-32z" />
    <glyph glyph-name="f" unicode="f" horiz-adv-x="411" 
d="M110 0v386h-60v114h60v65q0 61 42.5 104t103.5 43h115v-113h-106q-12 0 -20.5 -11t-8.5 -24v-64h97v-114h-97v-386h-126z" />
    <glyph glyph-name="g" unicode="g" horiz-adv-x="575" 
d="M236 -210q-66 0 -115.5 43.5t-57.5 109.5l112 29l5 -21q10 -46 51 -46h87q21 0 35.5 14.5t14.5 34.5v108q-23 -38 -85 -38h-74q-62 0 -105.5 43.5t-43.5 104.5v196q0 60 46.5 104t103.5 44h71q66 0 87 -45v42h127v-549q0 -72 -51 -123t-124 -51h-84zM243 138h48
q44 0 59.5 16t15.5 55v120q0 35 -18 54.5t-46 19.5h-56q-41 0 -54.5 -15.5t-13.5 -54.5v-119q0 -37 18.5 -56.5t46.5 -19.5z" />
    <glyph glyph-name="h" unicode="h" horiz-adv-x="589" 
d="M80 0v712h128v-237q31 41 87 41h80q60 0 102.5 -42t42.5 -102v-372h-124v333q0 38 -15 54t-57 16h-53q-28 0 -45.5 -19.5t-17.5 -55.5v-328h-128z" />
    <glyph glyph-name="i" unicode="i" horiz-adv-x="439" 
d="M70 0v114h107v286h-92v113h218v-399h86v-114h-319zM193 599q-8 0 -14 6t-6 14v90q0 8 6 14t14 6h94q8 0 14 -6t6 -14v-90q0 -8 -6 -14t-14 -6h-94z" />
    <glyph glyph-name="j" unicode="j" horiz-adv-x="358" 
d="M20 -210v113h101q27 0 27 36v461h-92v113h218v-576q0 -61 -42 -104t-103 -43h-109zM164 599q-8 0 -14 6t-6 14v90q0 8 6 14t14 6h94q8 0 14 -6t6 -14v-90q0 -8 -6 -14t-14 -6h-94z" />
    <glyph glyph-name="k" unicode="k" horiz-adv-x="577" 
d="M80 0v712h129v-401l168 202h165l-162 -190l104 -160q38 -58 38 -140v-23h-124v23q0 29 -3 42t-14 31l-88 134l-85 -104v-126h-128z" />
    <glyph glyph-name="l" unicode="l" horiz-adv-x="423" 
d="M50 0v114h108v485h-93v113h219v-598h84v-114h-318z" />
    <glyph glyph-name="m" unicode="m" horiz-adv-x="808" 
d="M80 0v513h117v-56q13 25 48 42t68 17h22q63 0 108 -58q16 26 52 42t68 16h28q61 0 104 -43.5t43 -104.5v-368h-126v324q0 40 -15.5 59.5t-58.5 19.5q-27 0 -46 -22.5t-19 -59.5v-321h-126v324q0 40 -15.5 59.5t-58.5 19.5q-27 0 -46 -23t-19 -60v-320h-128z" />
    <glyph glyph-name="n" unicode="n" horiz-adv-x="594" 
d="M80 0v513h121v-48q13 23 40.5 37t57.5 14h77q61 0 104.5 -43t43.5 -104v-369h-126v324q0 40 -15.5 59.5t-58.5 19.5h-49q-28 0 -46.5 -23t-18.5 -60v-320h-130z" />
    <glyph glyph-name="o" unicode="o" horiz-adv-x="572" 
d="M233 -3q-72 0 -122.5 50t-50.5 122v176q0 72 50.5 121.5t122.5 49.5h106q72 0 123 -49.5t51 -121.5v-176q0 -72 -51 -122t-123 -50h-106zM226 111h120q20 0 33.5 13.5t13.5 34.5v196q0 21 -13.5 34.5t-33.5 13.5h-120q-20 0 -33.5 -13.5t-13.5 -34.5v-196
q0 -21 13.5 -34.5t33.5 -13.5z" />
    <glyph glyph-name="p" unicode="p" horiz-adv-x="596" 
d="M80 -199v712h121v-48q30 51 98 51h89q62 0 105 -43t43 -105v-223q0 -61 -43 -104.5t-105 -43.5h-92q-51 0 -85 38v-234h-131zM280 111h66q28 0 46 19.5t18 55.5v145q0 39 -15.5 55.5t-58.5 16.5h-63q-28 0 -46.5 -20t-18.5 -57v-145q0 -38 15 -54t57 -16z" />
    <glyph glyph-name="q" unicode="q" horiz-adv-x="596" 
d="M385 -199v234q-34 -38 -85 -38h-92q-62 0 -105 43.5t-43 104.5v223q0 62 43 105t105 43h89q68 0 98 -51v48h121v-712h-131zM250 111h66q42 0 57 16t15 54v145q0 37 -18.5 57t-46.5 20h-62q-44 0 -59.5 -16.5t-15.5 -55.5v-145q0 -36 18 -55.5t46 -19.5z" />
    <glyph glyph-name="r" unicode="r" horiz-adv-x="394" 
d="M80 0v513h119v-51q28 51 100 51h66v-113h-90q-28 0 -46.5 -19.5t-18.5 -56.5v-324h-130z" />
    <glyph glyph-name="s" unicode="s" horiz-adv-x="557" 
d="M224 -3q-43 0 -76 15.5t-49 37.5t-25.5 43.5t-11.5 36.5l-2 16l113 29q11 -64 45 -64h121q16 0 27 10.5t11 25.5v12q0 32 -31 37l-148 22q-65 10 -97 48t-32 92v13q0 67 46.5 106t115.5 39h108q39 0 69.5 -14t45.5 -34t24 -40.5t11 -34.5l2 -14l-112 -27q0 2 -0.5 5.5
t-3 12.5t-6 15.5t-10.5 12t-16 5.5h-117q-41 0 -41 -33v-11q0 -25 31 -30l161 -27q60 -10 90.5 -51.5t30.5 -94.5v-13q0 -64 -43 -105t-117 -41h-114z" />
    <glyph glyph-name="t" unicode="t" horiz-adv-x="400" 
d="M251 0q-66 0 -99 28t-33 93v265h-79v114h79v150l130 35v-185h96v-114h-96v-246q0 -16 5.5 -21t18.5 -5h77v-114h-99z" />
    <glyph glyph-name="u" unicode="u" horiz-adv-x="594" 
d="M218 -3q-62 0 -105 43.5t-43 104.5v368h126v-330q0 -39 15.5 -55.5t58.5 -16.5h49q28 0 46.5 20t18.5 56v326h130v-513h-130v46q-33 -49 -89 -49h-77z" />
    <glyph glyph-name="v" unicode="v" horiz-adv-x="528" 
d="M204 0l-148 346q-15 35 -18 56.5t-3 74.5v36h124v-59q0 -26 6 -42l99 -264l99 264q6 15 6 49v52h125v-36q0 -53 -3 -74.5t-18 -56.5l-149 -346h-120z" />
    <glyph glyph-name="w" unicode="w" horiz-adv-x="686" 
d="M146 0l-81 342q-4 18 -8.5 35.5t-6 22.5t-3.5 16t-2 22v34v41h122v-57q0 -24 6 -49l44 -198l94 257h62l94 -258l46 199q7 31 7 51v55h122v-41q0 -28 -1 -42t-2 -20.5t-7 -27t-11 -40.5l-84 -342h-106l-89 221l-89 -221h-107z" />
    <glyph glyph-name="x" unicode="x" horiz-adv-x="540" 
d="M59 0v70q0 30 17 49l123 142l-123 142q-17 19 -17 49v61h130v-38q0 -11 4 -17l77 -100l78 100q5 6 5 17v38h128v-65q0 -27 -16 -45l-125 -142l125 -142q16 -19 16 -45v-74h-128v47q0 11 -5 17l-78 97l-77 -97q-4 -6 -4 -17v-47h-130z" />
    <glyph glyph-name="y" unicode="y" horiz-adv-x="537" 
d="M69 -210v114h56q12 0 20.5 3.5t14.5 11.5t9 14t8 18l30 72l-155 341q-17 36 -17 63v86h125v-57q0 -21 4 -30l105 -252l104 252q4 9 4 30v57h125v-86q0 -21 -17 -62l-198 -460q-24 -55 -52 -85t-72 -30h-94z" />
    <glyph glyph-name="z" unicode="z" horiz-adv-x="529" 
d="M55 0v102l245 298h-244v113h408v-102l-243 -297h254v-114h-420z" />
    <glyph glyph-name="braceleft" unicode="{" horiz-adv-x="417" 
d="M309 -179q-76 0 -129.5 54t-53.5 130v190q0 32 -18.5 53.5t-49.5 21.5h-10v107h10q31 0 49.5 22.5t18.5 55.5v153q0 76 53.5 130t129.5 54h38v-107h-48q-27 0 -45.5 -19t-18.5 -47v-164q0 -83 -78 -132q78 -46 78 -128v-204q0 -27 18.5 -46t45.5 -19h48v-105h-38z" />
    <glyph glyph-name="bar" unicode="|" horiz-adv-x="400" 
d="M150 -179v971h100v-971h-100z" />
    <glyph glyph-name="braceright" unicode="}" horiz-adv-x="417" 
d="M70 -179v105h48q27 0 45.5 19t18.5 46v204q0 82 78 128q-78 49 -78 132v164q0 28 -18.5 47t-45.5 19h-48v107h38q76 0 129.5 -54t53.5 -130v-153q0 -33 18.5 -55.5t49.5 -22.5h10v-107h-10q-31 0 -49.5 -21.5t-18.5 -53.5v-190q0 -76 -53.5 -130t-129.5 -54h-38z" />
    <glyph glyph-name="asciitilde" unicode="~" horiz-adv-x="552" 
d="M134 277l-85 34l17 43q16 41 51.5 68.5t81.5 27.5q18 0 45 -8l122 -37q12 -4 18 -4q12 0 19 14l15 32l85 -34l-16 -42q-33 -86 -128 -86q-43 0 -73 10l-92 30q-10 3 -20 3q-23 0 -31 -24z" />
    <glyph glyph-name="nbspace" unicode="&#xa0;" horiz-adv-x="270" 
 />
    <glyph glyph-name="exclamdown" unicode="&#xa1;" horiz-adv-x="323" 
d="M108 0q-12 0 -21.5 10t-9.5 22v296l27 146q6 32 34 32h49q26 0 32 -32l27 -146v-296q0 -12 -9.5 -22t-22.5 -10h-106zM119 565q-13 0 -22 10t-9 22v83q0 12 9.5 22t22.5 10h83q13 0 22.5 -10t9.5 -22v-83q0 -12 -9.5 -22t-22.5 -10h-84z" />
    <glyph glyph-name="cent" unicode="&#xa2;" 
d="M278 0v99q-69 5 -116.5 54.5t-47.5 120.5v169q0 70 47.5 120t116.5 55v94h112v-94q63 -4 109.5 -45.5t56.5 -104.5l-112 -30l-6 18q-15 46 -50 46h-106q-20 0 -34.5 -14.5t-14.5 -35.5v-188q0 -21 14.5 -35.5t34.5 -14.5h104q41 0 51 46l5 22l112 -30q-7 -63 -54 -106
t-110 -47v-99h-112z" />
    <glyph glyph-name="sterling" unicode="&#xa3;" 
d="M75 0v129h45l33 165h-74v124h98l28 149q12 63 64.5 104t120.5 41h9q72 0 125.5 -47.5t63.5 -118.5l-121 -33l-7 19q-10 27 -21.5 39t-32.5 12h-24q-21 0 -35 -15.5t-19 -39.5l-23 -110h104v-124h-128l-32 -165h346v-129h-520z" />
    <glyph glyph-name="currency" unicode="&#xa4;" horiz-adv-x="572" 
d="M501 219q0 -7 -6 -12l-46 -47q-7 -6 -12 -6q-7 0 -14 9l-42 49q-25 -11 -53 -11h-85q-27 0 -52 11l-42 -49q-7 -9 -14 -9q-5 0 -12 6l-46 47q-6 5 -6 12q0 6 8 14l48 40q-12 25 -12 55v101q0 29 12 55l-48 41q-8 6 -8 14q0 6 6 11l46 47q6 6 12 6q8 0 14 -9l42 -49
q27 10 52 10h85q25 0 52 -10l43 49q6 9 14 9q6 0 12 -6l46 -47q6 -5 6 -11q0 -8 -8 -14l-49 -41q13 -28 13 -55v-101q0 -30 -12 -55l48 -40q8 -8 8 -14zM369 321v115q0 16 -10 26t-25 10h-96q-15 0 -25 -10t-10 -26v-115q0 -16 10 -26t25 -10h96q15 0 25 10t10 26z" />
    <glyph glyph-name="yen" unicode="&#xa5;" 
d="M270 0v140h-131v121h131v17l-173 290q-17 28 -17 56v88h124v-69q0 -9 4 -17l127 -238l126 238q4 8 4 17v69h125v-88q0 -26 -18 -56l-172 -290v-17h139v-121h-139v-140h-130z" />
    <glyph glyph-name="brokenbar" unicode="&#xa6;" horiz-adv-x="439" 
d="M171 428v284h97v-284h-97zM171 0v284h97v-284h-97z" />
    <glyph glyph-name="section" unicode="&#xa7;" 
d="M290 -81q-54 0 -96 31.5t-56 83.5l-10 37l112 31l7 -30q9 -35 34 -35h78q13 0 22.5 9.5t9.5 22.5v22q0 33 -33 45l-180 67q-29 11 -50 43t-21 78v40q0 38 20.5 69.5t45.5 45.5q-17 23 -17 49v28q0 68 44 112t111 44h64q55 0 96 -32t58 -86l10 -32l-114 -32q-2 6 -8 30
q-11 34 -33 34h-73q-13 0 -22.5 -9t-9.5 -23v-18q0 -39 33 -49l159 -50q42 -13 67 -49t25 -90v-40q0 -35 -19.5 -68.5t-41.5 -45.5q13 -20 13 -49v-27q0 -68 -44 -112.5t-112 -44.5h-69zM411 238q14 0 24 13.5t10 28.5v23q0 31 -27 39l-148 48q-6 2 -9 2q-15 0 -25 -13.5
t-10 -28.5v-24q0 -29 27 -37l150 -50q3 -1 8 -1z" />
    <glyph glyph-name="dieresis" unicode="&#xa8;" horiz-adv-x="439" 
d="M283 590q-11 0 -19 7.5t-8 17.5v66q0 10 8 17.5t19 7.5h69q10 0 17 -7.5t7 -17.5v-66q0 -10 -7.5 -17.5t-17.5 -7.5h-68zM89 590q-10 0 -18 7.5t-8 17.5v66q0 10 8 17.5t18 7.5h69q10 0 17.5 -7.5t7.5 -17.5v-66q0 -10 -8 -17.5t-18 -7.5h-68z" />
    <glyph glyph-name="copyright" unicode="&#xa9;" horiz-adv-x="853" 
d="M322 0q-101 0 -172.5 71t-71.5 171v227q0 100 71.5 171.5t172.5 71.5h210q100 0 171.5 -71.5t71.5 -171.5v-227q0 -100 -71.5 -171t-171.5 -71h-210zM310 84h231q59 0 103 43.5t44 102.5v252q0 59 -44 102.5t-103 43.5h-231q-59 0 -102.5 -43.5t-43.5 -102.5v-252
q0 -59 43.5 -102.5t102.5 -43.5zM387 161q-44 0 -75 32t-31 77v174q0 45 31 77t75 32h79q41 0 71 -28.5t36 -73.5l-78 -22l-7 20q-5 13 -8.5 17t-11.5 4h-84q-8 0 -14 -6t-6 -14v-186q0 -8 6 -14t14 -6h83q19 0 23 25l3 17l79 -22q-5 -45 -35 -74t-71 -29h-79z" />
    <glyph glyph-name="ordfeminine" unicode="&#xaa;" horiz-adv-x="417" 
d="M164 323q-56 0 -88 33t-32 84q0 40 23 72t68 40l128 23q23 5 23 29q0 9 -7.5 16t-21.5 7h-90q-11 0 -17.5 -9.5t-7.5 -19.5l-2 -9l-84 20q0 4 1.5 11t8.5 25t18 31.5t34 24.5t52 11h97q47 0 76.5 -31t29.5 -82v-274h-91v44q-4 -21 -26.5 -33.5t-47.5 -12.5h-44zM164 408
h74q43 0 43 51v44q-5 -6 -23 -10l-100 -20q-23 -5 -23 -35q0 -11 9 -20.5t20 -9.5z" />
    <glyph glyph-name="guillemotleft" unicode="&#xab;" horiz-adv-x="650" 
d="M529 116q-14 0 -26 11l-178 163q-11 9 -11 26t11 26l178 163q12 11 26 11q13 0 26 -11l24 -23q12 -11 12 -27q0 -14 -11 -26l-100 -113l100 -113q11 -12 11 -27q0 -16 -12 -26l-24 -23q-13 -11 -26 -11zM264 116q-14 0 -26 11l-179 163q-11 9 -11 26t11 26l179 163
q12 11 26 11q12 0 25 -11l24 -23q13 -11 13 -27q0 -13 -12 -26l-100 -113l100 -113q12 -13 12 -27q0 -15 -13 -26l-24 -23q-13 -11 -25 -11z" />
    <glyph glyph-name="logicalnot" unicode="&#xac;" horiz-adv-x="552" 
d="M385 159v141h-318v103h416v-244h-98z" />
    <glyph glyph-name="sfthyphen" unicode="&#xad;" horiz-adv-x="458" 
d="M69 308v107h320v-107h-320z" />
    <glyph glyph-name="registered" unicode="&#xae;" horiz-adv-x="853" 
d="M322 0q-101 0 -172.5 71t-71.5 171v227q0 100 71.5 171.5t172.5 71.5h210q100 0 171.5 -71.5t71.5 -171.5v-227q0 -100 -71.5 -171t-171.5 -71h-210zM310 84h231q59 0 103 43.5t44 102.5v252q0 59 -44 102.5t-103 43.5h-231q-59 0 -102.5 -43.5t-43.5 -102.5v-252
q0 -59 43.5 -102.5t102.5 -43.5zM290 161v392h175q44 0 75.5 -32t31.5 -77v-25q0 -32 -17 -58.5t-44 -39.5l36 -57q14 -23 18 -37.5t4 -42.5v-23h-83v35q0 7 -5 17l-57 98h-49v-150h-85zM375 394h94q8 0 13.5 6t5.5 14v36q0 8 -5.5 14t-13.5 6h-94v-76z" />
    <glyph glyph-name="macron" unicode="&#xaf;" horiz-adv-x="439" 
d="M354 613h-269v95h269v-95z" />
    <glyph glyph-name="degree" unicode="&#xb0;" horiz-adv-x="390" 
d="M158 433q-42 0 -70 30t-28 72v75q0 42 28 72t70 30h72q42 0 71 -30t29 -72v-75q0 -42 -29 -72t-71 -30h-72zM161 512h67q10 0 16.5 7t6.5 16v75q0 9 -6.5 15t-16.5 6h-67q-10 0 -16.5 -6.5t-6.5 -14.5v-75q0 -9 7 -16t16 -7z" />
    <glyph glyph-name="plusminus" unicode="&#xb1;" horiz-adv-x="552" 
d="M229 118v190h-191v95h191v191h95v-191h189v-95h-189v-190h-95zM38 0v95h475v-95h-475z" />
    <glyph glyph-name="twosuperior" unicode="&#xb2;" horiz-adv-x="353" 
d="M69 415v56q0 52 36 73l99 58q18 11 18 25v6q0 16 -16 16h-56q-10 0 -16 -16l-5 -14l-62 17l9 23q9 23 29 38t47 15h55q34 0 56.5 -22.5t22.5 -56.5v-13q0 -44 -51 -73l-80 -46q-19 -11 -20 -22h151v-64h-217z" />
    <glyph glyph-name="threesuperior" unicode="&#xb3;" horiz-adv-x="353" 
d="M153 415q-32 0 -56.5 21.5t-28.5 55.5l59 16l4 -14q5 -16 16 -16h58q6 0 10.5 4.5t4.5 11.5v30q0 6 -4.5 10.5t-10.5 4.5h-56v55h56q6 0 10.5 4.5t4.5 11.5v23q0 7 -4.5 11.5t-10.5 4.5h-58q-11 0 -16 -16l-4 -14l-60 16q4 34 29 55.5t57 21.5h52q33 0 56 -24t23 -58v-13
q0 -33 -20 -50q20 -17 20 -50v-20q0 -34 -23 -58t-56 -24h-52z" />
    <glyph glyph-name="acute" unicode="&#xb4;" horiz-adv-x="439" 
d="M139 564q-15 0 -24 16l-13 23q-4 7 -4 14q0 13 15 25l153 108q10 7 17 7q13 0 23 -18l29 -52q5 -10 5 -17q0 -15 -16 -22l-169 -80q-7 -4 -16 -4z" />
    <glyph glyph-name="mu" unicode="&#xb5;" 
d="M130 -199q-17 0 -17 20v164q0 24 10.5 43.5t24.5 26.5q-35 32 -35 102v357h126v-331q0 -39 15.5 -55.5t58.5 -16.5h49q28 0 46.5 20t18.5 56v327h130v-514h-130v46q-33 -49 -89 -49h-46q-43 0 -53 12v-188q0 -20 -18 -20h-91z" />
    <glyph glyph-name="paragraph" unicode="&#xb6;" horiz-adv-x="552" 
d="M274 -115v374h-43q-78 0 -134 56t-56 134v73q0 79 55.5 134.5t134.5 55.5h281v-827h-86v722h-67v-722h-85z" />
    <glyph glyph-name="periodcentered" unicode="&#xb7;" horiz-adv-x="361" 
d="M139 282q-13 0 -22.5 10t-9.5 22v83q0 12 9.5 22t22.5 10h84q13 0 22 -10t9 -22v-83q0 -12 -9.5 -22t-22.5 -10h-83z" />
    <glyph glyph-name="periodcentered" unicode="&#x22c5;" horiz-adv-x="361" 
d="M139 282q-13 0 -22.5 10t-9.5 22v83q0 12 9.5 22t22.5 10h84q13 0 22 -10t9 -22v-83q0 -12 -9.5 -22t-22.5 -10h-83z" />
    <glyph glyph-name="periodcentered" unicode="&#x2227;" horiz-adv-x="361" 
d="M139 282q-13 0 -22.5 10t-9.5 22v83q0 12 9.5 22t22.5 10h84q13 0 22 -10t9 -22v-83q0 -12 -9.5 -22t-22.5 -10h-83z" />
    <glyph glyph-name="periodcentered" unicode="&#x2224;" horiz-adv-x="361" 
d="M139 282q-13 0 -22.5 10t-9.5 22v83q0 12 9.5 22t22.5 10h84q13 0 22 -10t9 -22v-83q0 -12 -9.5 -22t-22.5 -10h-83z" />
    <glyph glyph-name="periodcentered" unicode="&#x2219;" horiz-adv-x="361" 
d="M139 282q-13 0 -22.5 10t-9.5 22v83q0 12 9.5 22t22.5 10h84q13 0 22 -10t9 -22v-83q0 -12 -9.5 -22t-22.5 -10h-83z" />
    <glyph glyph-name="cedilla" unicode="&#xb8;" horiz-adv-x="439" 
d="M186 -187q-6 0 -13 3l-34 17q-13 6 -13 20q0 8 2 12l82 194q5 13 22 13q4 0 10 -2l57 -28q14 -7 14 -21q0 -5 -4 -11l-102 -183q-7 -14 -21 -14z" />
    <glyph glyph-name="onesuperior" unicode="&#xb9;" horiz-adv-x="353" 
d="M95 415v61h52v175h-45v61h109v-236h45v-61h-161z" />
    <glyph glyph-name="ordmasculine" unicode="&#xba;" horiz-adv-x="417" 
d="M171 323q-54 0 -91.5 37t-37.5 92v132q0 54 37.5 91t91.5 37h74q54 0 92 -37t38 -91v-132q0 -54 -38 -91.5t-92 -37.5h-74zM166 408h84q15 0 25 10t10 26v147q0 16 -10 26t-25 10h-84q-15 0 -25 -10t-10 -26v-147q0 -16 10 -26t25 -10z" />
    <glyph glyph-name="guillemotright" unicode="&#xbb;" horiz-adv-x="650" 
d="M121 116q-12 0 -25 11l-25 23q-12 10 -12 26q0 14 12 27l99 113l-99 113q-12 13 -12 26q0 16 12 27l25 23q13 11 25 11q14 0 26 -11l179 -163q10 -9 10 -26t-10 -26l-179 -163q-12 -11 -26 -11zM386 116q-12 0 -25 11l-24 23q-12 11 -12 26t11 27l100 113l-100 113
q-11 12 -11 26q0 16 12 27l24 23q13 11 25 11q15 0 27 -11l178 -163q11 -9 11 -26t-11 -26l-178 -163q-12 -11 -27 -11z" />
    <glyph glyph-name="onequarter" unicode="&#xbc;" 
d="M148 153l-48 53l442 375l46 -54zM437 0v65h-127v53l132 179h58v-172h31v-60h-31v-65h-63zM96 415v61h52v175h-46v61h110v-236h45v-61h-161zM389 125h48v68z" />
    <glyph glyph-name="onehalf" unicode="&#xbd;" 
d="M353 0v56q0 51 36 73l99 58q18 11 18 25v6q0 16 -16 16h-56q-10 0 -16 -16l-5 -14l-62 17l9 23q9 23 29 38t47 15h55q34 0 56.5 -22.5t22.5 -56.5v-13q0 -44 -51 -73l-80 -46q-19 -11 -20 -22h151v-64h-217zM139 153l-48 53l442 375l46 -54zM96 415v61h52v175h-46v61h110
v-236h45v-61h-161z" />
    <glyph glyph-name="threequarters" unicode="&#xbe;" 
d="M160 153l-47 53l442 375l45 -54zM166 415q-32 0 -56.5 21.5t-28.5 55.5l59 16l4 -14q5 -16 16 -16h58q6 0 10.5 4.5t4.5 11.5v30q0 6 -4.5 10.5t-10.5 4.5h-56v55h56q6 0 10.5 4.5t4.5 11.5v23q0 7 -4.5 11.5t-10.5 4.5h-58q-11 0 -16 -16l-4 -14l-60 16q4 34 29 55.5
t57 21.5h52q33 0 56 -24t23 -58v-13q0 -33 -20 -50q20 -17 20 -50v-20q0 -34 -23 -58t-56 -24h-52zM449 0v65h-127v53l132 179h58v-172h32v-60h-32v-65h-63zM401 125h48v68z" />
    <glyph glyph-name="questiondown" unicode="&#xbf;" horiz-adv-x="584" 
d="M247 0q-79 0 -130.5 51.5t-51.5 130.5v30q0 74 84 141l97 76q28 23 28 48v13q0 16 16 16h94q16 0 16 -16v-13q0 -48 -23 -83t-70 -73l-64 -52q-4 -3 -12 -9.5t-11 -9t-8.5 -7.5t-7.5 -8.5t-5 -9t-4 -11t-1 -12.5v-18q0 -23 16 -39t38 -16h109q46 0 61 51l6 19l121 -33
q-9 -71 -62.5 -118.5t-125.5 -47.5h-110zM295 565q-13 0 -22.5 10t-9.5 22v83q0 12 9.5 22t21.5 10h84q13 0 22.5 -10t9.5 -22v-83q0 -12 -9.5 -22t-22.5 -10h-83z" />
    <glyph glyph-name="Agrave" unicode="&#xc0;" horiz-adv-x="600" 
d="M45 0v51q0 44 11 79l182 582h124l182 -582q11 -35 11 -79v-51h-125v52q0 18 -2 24l-15 55h-226l-15 -55q-2 -6 -2 -24v-52h-125zM380 764q-9 0 -16 4l-169 80q-16 7 -16 22q0 7 5 17l29 52q11 18 23 18q6 0 17 -7l153 -108q15 -12 15 -25q0 -7 -4 -14l-13 -23
q-9 -16 -24 -16zM226 259h148l-74 238z" />
    <glyph glyph-name="Aacute" unicode="&#xc1;" horiz-adv-x="600" 
d="M45 0v51q0 44 11 79l182 582h124l182 -582q11 -35 11 -79v-51h-125v52q0 18 -2 24l-15 55h-226l-15 -55q-2 -6 -2 -24v-52h-125zM220 764q-15 0 -24 16l-13 23q-4 7 -4 14q0 13 15 25l153 108q10 7 17 7q13 0 23 -18l29 -52q5 -10 5 -17q0 -15 -16 -22l-169 -80
q-7 -4 -16 -4zM226 259h148l-74 238z" />
    <glyph glyph-name="Acircumflex" unicode="&#xc2;" horiz-adv-x="600" 
d="M45 0v51q0 44 11 79l182 582h124l182 -582q11 -35 11 -79v-51h-125v52q0 18 -2 24l-15 55h-226l-15 -55q-2 -6 -2 -24v-52h-125zM189 764q-11 0 -21 10l-18 19q-9 11 -9 21q0 11 9 20l84 93q8 8 20 8h91q14 0 21 -8l85 -92q9 -10 9 -20t-9 -21l-18 -19q-11 -11 -21 -11
q-12 0 -22 9l-90 80l-89 -79q-11 -10 -22 -10zM226 259h148l-74 238z" />
    <glyph glyph-name="Atilde" unicode="&#xc3;" horiz-adv-x="600" 
d="M45 0v51q0 44 11 79l182 582h124l182 -582q11 -35 11 -79v-51h-125v52q0 18 -2 24l-15 55h-226l-15 -55q-2 -6 -2 -24v-52h-125zM186 770l-68 26l14 34q14 33 42 55t64 22q16 0 36 -6l101 -31q8 -2 11 -2q10 0 16 11l12 26l69 -27l-15 -34q-30 -69 -101 -69q-32 0 -51 6
l-90 28q-8 2 -10 2q-12 0 -18 -13zM226 259h148l-74 238z" />
    <glyph glyph-name="Adieresis" unicode="&#xc4;" horiz-adv-x="600" 
d="M45 0v51q0 44 11 79l182 582h124l182 -582q11 -35 11 -79v-51h-125v52q0 18 -2 24l-15 55h-226l-15 -55q-2 -6 -2 -24v-52h-125zM226 259h148l-74 238zM364 790q-11 0 -19 7.5t-8 17.5v66q0 10 8 17.5t19 7.5h69q10 0 17 -7.5t7 -17.5v-66q0 -10 -7.5 -17.5t-17.5 -7.5
h-68zM170 790q-10 0 -18 7.5t-8 17.5v66q0 10 8 17.5t18 7.5h69q10 0 17.5 -7.5t7.5 -17.5v-66q0 -10 -8 -17.5t-18 -7.5h-68z" />
    <glyph glyph-name="Aring" unicode="&#xc5;" horiz-adv-x="600" 
d="M45 0v51q0 44 11 79l182 582h124l182 -582q11 -35 11 -79v-51h-125v52q0 18 -2 24l-15 55h-226l-15 -55q-2 -6 -2 -24v-52h-125zM275 764q-29 0 -47.5 20t-18.5 50v48q0 29 18.5 50t47.5 21h47q28 0 48 -21t20 -50v-48q0 -29 -20 -49.5t-48 -20.5h-47zM226 259h148
l-74 238zM280 824h37q6 0 10 4t4 9v41q0 13 -14 13h-37q-13 0 -13 -13v-41q0 -5 4 -9t9 -4z" />
    <glyph glyph-name="AE" unicode="&#xc6;" horiz-adv-x="901" 
d="M45 0v78q0 26 11 52l234 582h546v-129h-315v-154h225v-130h-225v-170h315v-129h-444v163h-189l-31 -87q-2 -5 -2 -27v-49h-125zM248 291h144v292h-27z" />
    <glyph glyph-name="Ccedilla" unicode="&#xc7;" horiz-adv-x="636" 
d="M270 -187q-7 0 -13 3l-35 17q-14 6 -14 20q0 6 3 12l57 135q-79 0 -134.5 55.5t-55.5 134.5v332q0 79 55.5 134.5t134.5 55.5h132q72 0 125.5 -47.5t63.5 -118.5l-122 -33l-7 19q-10 27 -21.5 39t-32.5 12h-145q-22 0 -38 -16t-16 -39v-346q0 -23 16 -39t38 -16h143
q44 0 56 51l5 21l122 -32q-9 -72 -62.5 -119.5t-125.5 -47.5h-11l-98 -174q-7 -13 -20 -13z" />
    <glyph glyph-name="Egrave" unicode="&#xc8;" horiz-adv-x="671" 
d="M95 0v712h511v-129h-381v-153h291v-131h-291v-170h381v-129h-511zM415 764q-9 0 -16 4l-169 80q-16 7 -16 22q0 7 5 17l29 52q10 18 23 18q7 0 17 -7l153 -108q15 -12 15 -25q0 -7 -4 -14l-13 -23q-9 -16 -24 -16z" />
    <glyph glyph-name="Eacute" unicode="&#xc9;" horiz-adv-x="671" 
d="M95 0v712h511v-129h-381v-153h291v-131h-291v-170h381v-129h-511zM255 764q-15 0 -24 16l-13 23q-4 7 -4 14q0 13 15 25l153 108q10 7 17 7q13 0 23 -18l29 -52q5 -10 5 -17q0 -15 -16 -22l-169 -80q-7 -4 -16 -4z" />
    <glyph glyph-name="Ecircumflex" unicode="&#xca;" horiz-adv-x="671" 
d="M95 0v712h511v-129h-381v-153h291v-131h-291v-170h381v-129h-511zM224 764q-11 0 -21 10l-18 19q-9 11 -9 21q0 11 9 20l84 93q8 8 20 8h91q14 0 21 -8l85 -92q9 -10 9 -20t-9 -21l-18 -19q-11 -11 -21 -11q-11 0 -22 9l-90 80l-89 -79q-11 -10 -22 -10z" />
    <glyph glyph-name="Edieresis" unicode="&#xcb;" horiz-adv-x="671" 
d="M95 0v712h511v-129h-381v-153h291v-131h-291v-170h381v-129h-511zM399 790q-11 0 -19 7.5t-8 17.5v66q0 10 8 17.5t19 7.5h69q10 0 17 -7.5t7 -17.5v-66q0 -10 -7.5 -17.5t-17.5 -7.5h-68zM205 790q-10 0 -18 7.5t-8 17.5v66q0 10 8 17.5t18 7.5h69q10 0 17.5 -7.5
t7.5 -17.5v-66q0 -10 -8 -17.5t-18 -7.5h-68z" />
    <glyph glyph-name="Igrave" unicode="&#xcc;" horiz-adv-x="487" 
d="M78 0v129h100v454h-100v129h331v-129h-100v-454h100v-129h-331zM323 764q-9 0 -16 4l-169 80q-16 7 -16 22q0 7 5 17l29 52q10 18 23 18q7 0 17 -7l153 -108q15 -12 15 -25q0 -7 -4 -14l-13 -23q-9 -16 -24 -16z" />
    <glyph glyph-name="Iacute" unicode="&#xcd;" horiz-adv-x="487" 
d="M78 0v129h100v454h-100v129h331v-129h-100v-454h100v-129h-331zM163 764q-15 0 -24 16l-13 23q-4 7 -4 14q0 13 15 25l153 108q10 7 17 7q13 0 23 -18l29 -52q5 -10 5 -17q0 -15 -16 -22l-169 -80q-7 -4 -16 -4z" />
    <glyph glyph-name="Icircumflex" unicode="&#xce;" horiz-adv-x="487" 
d="M78 0v129h100v454h-100v129h331v-129h-100v-454h100v-129h-331zM132 764q-11 0 -21 10l-18 19q-9 11 -9 21q0 11 9 20l84 93q8 8 20 8h91q14 0 21 -8l85 -92q9 -10 9 -20t-9 -21l-18 -19q-11 -11 -21 -11q-11 0 -22 9l-90 80l-89 -79q-11 -10 -22 -10z" />
    <glyph glyph-name="Idieresis" unicode="&#xcf;" horiz-adv-x="487" 
d="M78 0v129h100v454h-100v129h331v-129h-100v-454h100v-129h-331zM307 790q-11 0 -19 7.5t-8 17.5v66q0 10 8 17.5t19 7.5h69q10 0 17 -7.5t7 -17.5v-66q0 -10 -7.5 -17.5t-17.5 -7.5h-68zM113 790q-10 0 -18 7.5t-8 17.5v66q0 10 8 17.5t18 7.5h69q10 0 17.5 -7.5
t7.5 -17.5v-66q0 -10 -8 -17.5t-18 -7.5h-68z" />
    <glyph glyph-name="Eth" unicode="&#xd0;" horiz-adv-x="684" 
d="M95 0v304h-106v115h106v293h321q78 0 134 -55.5t56 -134.5v-332q0 -79 -55.5 -134.5t-133.5 -55.5h-322zM225 129h197q22 0 38 16t16 39v344q0 23 -16 39t-38 16h-197v-164h112v-115h-112v-175z" />
    <glyph glyph-name="Ntilde" unicode="&#xd1;" horiz-adv-x="701" 
d="M95 0v712h126l255 -446v446h130v-712h-123l-258 458v-458h-130zM236 770l-68 26l14 34q14 33 42 55t64 22q16 0 36 -6l101 -31q8 -2 11 -2q10 0 16 11l12 26l69 -27l-15 -34q-30 -69 -101 -69q-32 0 -51 6l-90 28q-8 2 -10 2q-12 0 -18 -13z" />
    <glyph glyph-name="Ograve" unicode="&#xd2;" horiz-adv-x="661" 
d="M265 0q-79 0 -134.5 55.5t-55.5 134.5v332q0 79 55.5 134.5t134.5 55.5h131q78 0 134 -55.5t56 -134.5v-332q0 -79 -56 -134.5t-134 -55.5h-131zM258 129h143q23 0 39 16.5t16 38.5v344q0 22 -16 38.5t-39 16.5h-143q-22 0 -38 -16t-16 -39v-344q0 -23 16 -39t38 -16z
M410 764q-9 0 -16 4l-169 80q-16 7 -16 22q0 7 5 17l29 52q11 18 23 18q6 0 17 -7l153 -108q15 -12 15 -25q0 -7 -4 -14l-13 -23q-9 -16 -24 -16z" />
    <glyph glyph-name="Oacute" unicode="&#xd3;" horiz-adv-x="661" 
d="M265 0q-79 0 -134.5 55.5t-55.5 134.5v332q0 79 55.5 134.5t134.5 55.5h131q78 0 134 -55.5t56 -134.5v-332q0 -79 -56 -134.5t-134 -55.5h-131zM258 129h143q23 0 39 16.5t16 38.5v344q0 22 -16 38.5t-39 16.5h-143q-22 0 -38 -16t-16 -39v-344q0 -23 16 -39t38 -16z
M250 764q-15 0 -24 16l-13 23q-4 7 -4 14q0 13 15 25l153 108q10 7 17 7q12 0 23 -18l29 -52q5 -10 5 -17q0 -15 -16 -22l-169 -80q-7 -4 -16 -4z" />
    <glyph glyph-name="Ocircumflex" unicode="&#xd4;" horiz-adv-x="661" 
d="M265 0q-79 0 -134.5 55.5t-55.5 134.5v332q0 79 55.5 134.5t134.5 55.5h131q78 0 134 -55.5t56 -134.5v-332q0 -79 -56 -134.5t-134 -55.5h-131zM258 129h143q23 0 39 16.5t16 38.5v344q0 22 -16 38.5t-39 16.5h-143q-22 0 -38 -16t-16 -39v-344q0 -23 16 -39t38 -16z
M219 764q-11 0 -21 10l-18 19q-9 11 -9 21q0 11 9 20l84 93q8 8 20 8h91q14 0 21 -8l85 -92q9 -10 9 -20t-9 -21l-18 -19q-11 -11 -21 -11q-12 0 -22 9l-90 80l-89 -79q-11 -10 -22 -10z" />
    <glyph glyph-name="Otilde" unicode="&#xd5;" horiz-adv-x="661" 
d="M265 0q-79 0 -134.5 55.5t-55.5 134.5v332q0 79 55.5 134.5t134.5 55.5h131q78 0 134 -55.5t56 -134.5v-332q0 -79 -56 -134.5t-134 -55.5h-131zM258 129h143q23 0 39 16.5t16 38.5v344q0 22 -16 38.5t-39 16.5h-143q-22 0 -38 -16t-16 -39v-344q0 -23 16 -39t38 -16z
M216 770l-68 26l14 34q14 33 42 55t64 22q16 0 36 -6l101 -31q8 -2 11 -2q10 0 16 11l12 26l69 -27l-15 -34q-30 -69 -101 -69q-32 0 -51 6l-90 28q-8 2 -10 2q-12 0 -18 -13z" />
    <glyph glyph-name="Odieresis" unicode="&#xd6;" horiz-adv-x="661" 
d="M265 0q-79 0 -134.5 55.5t-55.5 134.5v332q0 79 55.5 134.5t134.5 55.5h131q78 0 134 -55.5t56 -134.5v-332q0 -79 -56 -134.5t-134 -55.5h-131zM258 129h143q23 0 39 16.5t16 38.5v344q0 22 -16 38.5t-39 16.5h-143q-22 0 -38 -16t-16 -39v-344q0 -23 16 -39t38 -16z
M394 790q-11 0 -19 7.5t-8 17.5v66q0 10 8 17.5t19 7.5h69q10 0 17 -7.5t7 -17.5v-66q0 -10 -7.5 -17.5t-17.5 -7.5h-68zM200 790q-10 0 -18 7.5t-8 17.5v66q0 10 8 17.5t18 7.5h69q10 0 17.5 -7.5t7.5 -17.5v-66q0 -10 -8 -17.5t-18 -7.5h-68z" />
    <glyph glyph-name="multiply" unicode="&#xd7;" horiz-adv-x="552" 
d="M155 147l-79 77l123 123l-123 123l79 77l121 -123l123 122l77 -77l-121 -122l121 -122l-77 -77l-123 122z" />
    <glyph glyph-name="Oslash" unicode="&#xd8;" horiz-adv-x="661" 
d="M114 -44l-85 59l65 91q-19 40 -19 82v336q0 78 55.5 133t133.5 55h133q55 0 101 -30l50 71l83 -58l-64 -90q19 -40 19 -81v-336q0 -78 -55.5 -133t-133.5 -55h-133q-55 0 -100 28zM198 255l231 328q-14 7 -27 7h-145q-24 0 -41.5 -18t-17.5 -42v-275zM257 122h145
q25 0 42.5 17.5t17.5 42.5v272l-228 -327q12 -5 23 -5z" />
    <glyph glyph-name="Ugrave" unicode="&#xd9;" horiz-adv-x="667" 
d="M268 0q-79 0 -134.5 55.5t-55.5 134.5v522h129v-528q0 -23 16 -39t38 -16h143q22 0 38.5 16.5t16.5 38.5v528h130v-522q0 -79 -56 -134.5t-134 -55.5h-131zM413 764q-9 0 -16 4l-169 80q-16 7 -16 22q0 7 5 17l29 52q10 18 23 18q7 0 17 -7l153 -108q15 -12 15 -25
q0 -7 -4 -14l-13 -23q-9 -16 -24 -16z" />
    <glyph glyph-name="Uacute" unicode="&#xda;" horiz-adv-x="667" 
d="M268 0q-79 0 -134.5 55.5t-55.5 134.5v522h129v-528q0 -23 16 -39t38 -16h143q22 0 38.5 16.5t16.5 38.5v528h130v-522q0 -79 -56 -134.5t-134 -55.5h-131zM253 764q-15 0 -24 16l-13 23q-4 7 -4 14q0 13 15 25l153 108q10 7 17 7q13 0 23 -18l29 -52q5 -10 5 -17
q0 -15 -16 -22l-169 -80q-7 -4 -16 -4z" />
    <glyph glyph-name="Ucircumflex" unicode="&#xdb;" horiz-adv-x="667" 
d="M268 0q-79 0 -134.5 55.5t-55.5 134.5v522h129v-528q0 -23 16 -39t38 -16h143q22 0 38.5 16.5t16.5 38.5v528h130v-522q0 -79 -56 -134.5t-134 -55.5h-131zM222 764q-11 0 -21 10l-18 19q-9 11 -9 21q0 11 9 20l84 93q8 8 20 8h91q14 0 21 -8l85 -92q9 -10 9 -20t-9 -21
l-18 -19q-11 -11 -21 -11q-11 0 -22 9l-90 80l-89 -79q-11 -10 -22 -10z" />
    <glyph glyph-name="Udieresis" unicode="&#xdc;" horiz-adv-x="667" 
d="M268 0q-79 0 -134.5 55.5t-55.5 134.5v522h129v-528q0 -23 16 -39t38 -16h143q22 0 38.5 16.5t16.5 38.5v528h130v-522q0 -79 -56 -134.5t-134 -55.5h-131zM397 790q-11 0 -19 7.5t-8 17.5v66q0 10 8 17.5t19 7.5h69q10 0 17 -7.5t7 -17.5v-66q0 -10 -7.5 -17.5
t-17.5 -7.5h-68zM203 790q-10 0 -18 7.5t-8 17.5v66q0 10 8 17.5t18 7.5h69q10 0 17.5 -7.5t7.5 -17.5v-66q0 -10 -8 -17.5t-18 -7.5h-68z" />
    <glyph glyph-name="Yacute" unicode="&#xdd;" horiz-adv-x="590" 
d="M231 0v278l-173 290q-18 30 -18 56v88h125v-69q0 -9 4 -17l126 -238l127 238q4 8 4 17v69h124v-88q0 -28 -17 -56l-172 -290v-278h-130zM215 764q-15 0 -24 16l-13 23q-4 7 -4 14q0 13 15 25l153 108q10 7 17 7q13 0 23 -18l29 -52q5 -10 5 -17q0 -15 -16 -22l-169 -80
q-7 -4 -16 -4z" />
    <glyph glyph-name="Thorn" unicode="&#xde;" horiz-adv-x="641" 
d="M95 0v712h130v-114h191q79 0 134.5 -54t55.5 -132v-49q0 -78 -56 -132t-134 -54h-191v-177h-130zM225 303h197q22 0 38 15.5t16 38.5v61q0 23 -16 39t-38 16h-197v-170z" />
    <glyph glyph-name="germandbls" unicode="&#xdf;" horiz-adv-x="666" 
d="M85 -115v637q0 79 56 134.5t134 55.5h98q78 0 134.5 -56t56.5 -134v-32q0 -55 -35 -107q27 -22 47 -60.5t20 -82.5v-50q0 -78 -56.5 -134t-134.5 -56h-104v129h110q22 0 38 16t16 39v61q0 22 -16 38t-38 16h-110v130h78q23 0 38.5 15.5t15.5 38.5v45q0 23 -16 39t-38 16
h-111q-22 0 -38 -16t-16 -39v-643h-129z" />
    <glyph glyph-name="agrave" unicode="&#xe0;" horiz-adv-x="562" 
d="M210 -3q-75 0 -117.5 44t-42.5 112q0 53 30.5 96t90.5 54l170 30q31 6 31 39q0 12 -10 21.5t-29 9.5h-119q-14 0 -23 -12.5t-11 -25.5l-2 -13l-112 27q0 6 2 15t11.5 32.5t24 41.5t44.5 33t69 15h130q63 0 102 -41.5t39 -109.5v-365h-121v49q-9 -23 -38 -37.5t-61 -14.5
h-58zM362 564q-9 0 -16 4l-169 80q-16 7 -16 22q0 7 5 17l29 52q11 18 23 18q6 0 17 -7l153 -108q15 -12 15 -25q0 -7 -4 -14l-13 -23q-9 -16 -24 -16zM209 111h99q57 0 57 68v55q-7 -8 -31 -12l-132 -25q-31 -7 -31 -40q0 -18 10.5 -32t27.5 -14z" />
    <glyph glyph-name="aacute" unicode="&#xe1;" horiz-adv-x="562" 
d="M210 -3q-75 0 -117.5 44t-42.5 112q0 53 30.5 96t90.5 54l170 30q31 6 31 39q0 12 -10 21.5t-29 9.5h-119q-14 0 -23 -12.5t-11 -25.5l-2 -13l-112 27q0 6 2 15t11.5 32.5t24 41.5t44.5 33t69 15h130q63 0 102 -41.5t39 -109.5v-365h-121v49q-9 -23 -38 -37.5t-61 -14.5
h-58zM202 564q-15 0 -24 16l-13 23q-4 7 -4 14q0 13 15 25l153 108q10 7 17 7q12 0 23 -18l29 -52q5 -10 5 -17q0 -15 -16 -22l-169 -80q-7 -4 -16 -4zM209 111h99q57 0 57 68v55q-7 -8 -31 -12l-132 -25q-31 -7 -31 -40q0 -18 10.5 -32t27.5 -14z" />
    <glyph glyph-name="acircumflex" unicode="&#xe2;" horiz-adv-x="562" 
d="M210 -3q-75 0 -117.5 44t-42.5 112q0 53 30.5 96t90.5 54l170 30q31 6 31 39q0 12 -10 21.5t-29 9.5h-119q-14 0 -23 -12.5t-11 -25.5l-2 -13l-112 27q0 6 2 15t11.5 32.5t24 41.5t44.5 33t69 15h130q63 0 102 -41.5t39 -109.5v-365h-121v49q-9 -23 -38 -37.5t-61 -14.5
h-58zM170 564q-11 0 -21 10l-18 19q-9 11 -9 21q0 11 9 20l84 93q8 8 20 8h91q14 0 21 -8l85 -92q9 -11 9 -20q0 -10 -9 -21l-18 -19q-11 -11 -21 -11q-11 0 -22 9l-90 80l-89 -79q-11 -10 -22 -10zM209 111h99q57 0 57 68v55q-7 -8 -31 -12l-132 -25q-31 -7 -31 -40
q0 -18 10.5 -32t27.5 -14z" />
    <glyph glyph-name="atilde" unicode="&#xe3;" horiz-adv-x="562" 
d="M210 -3q-75 0 -117.5 44t-42.5 112q0 53 30.5 96t90.5 54l170 30q31 6 31 39q0 12 -10 21.5t-29 9.5h-119q-14 0 -23 -12.5t-11 -25.5l-2 -13l-112 27q0 6 2 15t11.5 32.5t24 41.5t44.5 33t69 15h130q63 0 102 -41.5t39 -109.5v-365h-121v49q-9 -23 -38 -37.5t-61 -14.5
h-58zM167 570l-68 26l14 34q14 33 42 55t64 22q17 0 36 -6l101 -31q8 -2 11 -2q11 0 16 11l12 26l69 -27l-15 -34q-30 -69 -101 -69q-32 0 -51 6l-90 28q-8 2 -10 2q-11 0 -18 -13zM209 111h99q57 0 57 68v55q-7 -8 -31 -12l-132 -25q-31 -7 -31 -40q0 -18 10.5 -32
t27.5 -14z" />
    <glyph glyph-name="adieresis" unicode="&#xe4;" horiz-adv-x="562" 
d="M210 -3q-75 0 -117.5 44t-42.5 112q0 53 30.5 96t90.5 54l170 30q31 6 31 39q0 12 -10 21.5t-29 9.5h-119q-14 0 -23 -12.5t-11 -25.5l-2 -13l-112 27q0 6 2 15t11.5 32.5t24 41.5t44.5 33t69 15h130q63 0 102 -41.5t39 -109.5v-365h-121v49q-9 -23 -38 -37.5t-61 -14.5
h-58zM209 111h99q57 0 57 68v55q-7 -8 -31 -12l-132 -25q-31 -7 -31 -40q0 -18 10.5 -32t27.5 -14zM345 590q-11 0 -19 7.5t-8 17.5v66q0 10 8 17.5t19 7.5h69q10 0 17 -7.5t7 -17.5v-66q0 -10 -7.5 -17.5t-17.5 -7.5h-68zM151 590q-10 0 -18 7.5t-8 17.5v66q0 10 8 17.5
t18 7.5h69q10 0 17.5 -7.5t7.5 -17.5v-66q0 -10 -8 -17.5t-18 -7.5h-68z" />
    <glyph glyph-name="aring" unicode="&#xe5;" horiz-adv-x="562" 
d="M210 -3q-75 0 -117.5 44t-42.5 112q0 53 30.5 96t90.5 54l170 30q31 6 31 39q0 12 -10 21.5t-29 9.5h-119q-14 0 -23 -12.5t-11 -25.5l-2 -13l-112 27q0 6 2 15t11.5 32.5t24 41.5t44.5 33t69 15h130q63 0 102 -41.5t39 -109.5v-365h-121v49q-9 -23 -38 -37.5t-61 -14.5
h-58zM258 564q-29 0 -47.5 20t-18.5 50v48q0 29 18.5 50t47.5 21h47q28 0 48 -21t20 -50v-48q0 -29 -20 -49.5t-48 -20.5h-47zM209 111h99q57 0 57 68v55q-7 -8 -31 -12l-132 -25q-31 -7 -31 -40q0 -18 10.5 -32t27.5 -14zM263 624h37q6 0 10 4t4 9v41q0 13 -14 13h-37
q-13 0 -13 -13v-41q0 -5 4 -9t9 -4z" />
    <glyph glyph-name="ae" unicode="&#xe6;" horiz-adv-x="904" 
d="M220 -3q-75 0 -117.5 44t-42.5 112q0 53 30.5 96t90.5 54l170 30q31 6 31 39q0 12 -10 21.5t-29 9.5h-119q-14 0 -23 -12.5t-11 -25.5l-2 -13l-112 27q0 6 1.5 15t11 32.5t24 41.5t45 33t69.5 15h121q71 0 104 -53q47 54 126 54h101q71 0 117.5 -50.5t46.5 -124.5v-101
q0 -11 -8 -19t-19 -8h-304v-53q0 -21 14.5 -35.5t35.5 -14.5h117q35 0 50 46l3 9l113 -25q-11 -62 -59.5 -103t-111.5 -41h-93q-75 0 -128 53q-30 -53 -112 -53h-121zM219 111h99q57 0 57 68v53q-5 -4 -27 -8l-136 -27q-31 -7 -31 -40q0 -18 10.5 -32t27.5 -14zM512 324h213
v29q0 22 -10.5 36t-29.5 14h-126q-21 0 -34 -14.5t-13 -35.5v-29z" />
    <glyph glyph-name="ccedilla" unicode="&#xe7;" horiz-adv-x="541" 
d="M217 -187q-6 0 -12 3l-34 17q-13 6 -13 20q0 8 2 12l56 133q-66 7 -111 57t-45 117v169q0 73 51 124t124 51h93q66 0 115.5 -44t58.5 -109l-112 -30l-6 18q-15 46 -50 46h-106q-20 0 -34.5 -15t-14.5 -35v-183q0 -20 14.5 -35t34.5 -15h104q39 0 51 46l5 20l112 -30
q-8 -63 -54.5 -106.5t-110.5 -46.5l-96 -171q-8 -13 -22 -13z" />
    <glyph glyph-name="egrave" unicode="&#xe8;" horiz-adv-x="571" 
d="M235 -3q-73 0 -124 51t-51 124v169q0 73 50 124t122 51h113q72 0 118.5 -50.5t46.5 -124.5v-107q0 -11 -8.5 -19t-19.5 -8h-303v-46q0 -21 14.5 -35.5t34.5 -14.5h117q36 0 51 46l3 9l112 -25q-11 -62 -59.5 -103t-111.5 -41h-105zM364 564q-9 0 -16 4l-169 80
q-16 7 -16 22q0 7 5 17l29 52q11 18 23 18q6 0 17 -7l153 -108q15 -12 15 -25q0 -7 -4 -14l-13 -23q-9 -16 -24 -16zM179 320h212v32q0 50 -40 50h-126q-20 0 -33 -14.5t-13 -35.5v-32z" />
    <glyph glyph-name="eacute" unicode="&#xe9;" horiz-adv-x="571" 
d="M235 -3q-73 0 -124 51t-51 124v169q0 73 50 124t122 51h113q72 0 118.5 -50.5t46.5 -124.5v-107q0 -11 -8.5 -19t-19.5 -8h-303v-46q0 -21 14.5 -35.5t34.5 -14.5h117q36 0 51 46l3 9l112 -25q-11 -62 -59.5 -103t-111.5 -41h-105zM204 564q-15 0 -24 16l-13 23
q-4 7 -4 14q0 13 15 25l153 108q10 7 17 7q12 0 23 -18l29 -52q5 -10 5 -17q0 -15 -16 -22l-169 -80q-7 -4 -16 -4zM179 320h212v32q0 50 -40 50h-126q-20 0 -33 -14.5t-13 -35.5v-32z" />
    <glyph glyph-name="ecircumflex" unicode="&#xea;" horiz-adv-x="571" 
d="M235 -3q-73 0 -124 51t-51 124v169q0 73 50 124t122 51h113q72 0 118.5 -50.5t46.5 -124.5v-107q0 -11 -8.5 -19t-19.5 -8h-303v-46q0 -21 14.5 -35.5t34.5 -14.5h117q36 0 51 46l3 9l112 -25q-11 -62 -59.5 -103t-111.5 -41h-105zM172 564q-11 0 -21 10l-18 19
q-9 11 -9 21q0 11 9 20l84 93q8 8 20 8h91q14 0 21 -8l85 -92q9 -11 9 -20q0 -10 -9 -21l-18 -19q-11 -11 -21 -11q-11 0 -22 9l-90 80l-89 -79q-11 -10 -22 -10zM179 320h212v32q0 50 -40 50h-126q-20 0 -33 -14.5t-13 -35.5v-32z" />
    <glyph glyph-name="edieresis" unicode="&#xeb;" horiz-adv-x="571" 
d="M235 -3q-73 0 -124 51t-51 124v169q0 73 50 124t122 51h113q72 0 118.5 -50.5t46.5 -124.5v-107q0 -11 -8.5 -19t-19.5 -8h-303v-46q0 -21 14.5 -35.5t34.5 -14.5h117q36 0 51 46l3 9l112 -25q-11 -62 -59.5 -103t-111.5 -41h-105zM179 320h212v32q0 50 -40 50h-126
q-20 0 -33 -14.5t-13 -35.5v-32zM347 590q-11 0 -19 7.5t-8 17.5v66q0 10 8 17.5t19 7.5h69q10 0 17 -7.5t7 -17.5v-66q0 -10 -7.5 -17.5t-17.5 -7.5h-68zM153 590q-10 0 -18 7.5t-8 17.5v66q0 10 8 17.5t18 7.5h69q10 0 17.5 -7.5t7.5 -17.5v-66q0 -10 -8 -17.5t-18 -7.5
h-68z" />
    <glyph glyph-name="igrave" unicode="&#xec;" horiz-adv-x="439" 
d="M70 0v114h107v286h-92v113h218v-399h86v-114h-319zM299 564q-9 0 -16 4l-169 80q-16 7 -16 22q0 7 5 17l29 52q10 18 23 18q7 0 17 -7l153 -108q15 -12 15 -25q0 -7 -4 -14l-13 -23q-9 -16 -24 -16z" />
    <glyph glyph-name="iacute" unicode="&#xed;" horiz-adv-x="439" 
d="M70 0v114h107v286h-92v113h218v-399h86v-114h-319zM139 564q-15 0 -24 16l-13 23q-4 7 -4 14q0 13 15 25l153 108q10 7 17 7q13 0 23 -18l29 -52q5 -10 5 -17q0 -15 -16 -22l-169 -80q-7 -4 -16 -4z" />
    <glyph glyph-name="icircumflex" unicode="&#xee;" horiz-adv-x="439" 
d="M70 0v114h107v286h-92v113h218v-399h86v-114h-319zM107 564q-11 0 -21 10l-18 19q-9 11 -9 21q0 11 9 20l84 93q8 8 20 8h91q14 0 21 -8l85 -92q9 -11 9 -20q0 -10 -9 -21l-18 -19q-11 -11 -21 -11q-12 0 -22 9l-90 80l-89 -79q-11 -10 -22 -10z" />
    <glyph glyph-name="idieresis" unicode="&#xef;" horiz-adv-x="439" 
d="M70 0v114h107v286h-92v113h218v-399h86v-114h-319zM282 590q-11 0 -19 7.5t-8 17.5v66q0 10 8 17.5t19 7.5h69q10 0 17 -7.5t7 -17.5v-66q0 -10 -7.5 -17.5t-17.5 -7.5h-68zM88 590q-10 0 -18 7.5t-8 17.5v66q0 10 8 17.5t18 7.5h69q10 0 17.5 -7.5t7.5 -17.5v-66
q0 -10 -8 -17.5t-18 -7.5h-68z" />
    <glyph glyph-name="eth" unicode="&#xf0;" horiz-adv-x="578" 
d="M233 -3q-72 0 -122.5 50t-50.5 122v189q0 63 43 105.5t105 42.5h82q29 0 55 -11.5t36 -33.5v70q0 11 -6 25l-54 -33l-42 65l60 39q-16 23 -56 52l87 94q43 -34 76 -76l57 37l42 -66l-64 -39q22 -43 22 -119v-341q0 -72 -51 -122t-123 -50h-96zM261 111h72q20 0 33.5 13.5
t13.5 34.5v164q0 38 -15 54t-57 16h-58q-28 0 -46 -19.5t-18 -55.5v-135q0 -41 15.5 -56.5t59.5 -15.5z" />
    <glyph glyph-name="ntilde" unicode="&#xf1;" horiz-adv-x="594" 
d="M80 0v513h121v-48q13 23 40.5 37t57.5 14h77q61 0 104.5 -43t43.5 -104v-369h-126v324q0 40 -15.5 59.5t-58.5 19.5h-49q-28 0 -46.5 -23t-18.5 -60v-320h-130zM182 570l-68 26l14 34q14 33 42 55t64 22q16 0 36 -6l101 -31q8 -2 11 -2q10 0 16 11l12 26l69 -27l-15 -34
q-30 -69 -101 -69q-32 0 -51 6l-90 28q-8 2 -10 2q-12 0 -18 -13z" />
    <glyph glyph-name="ograve" unicode="&#xf2;" horiz-adv-x="572" 
d="M233 -3q-72 0 -122.5 50t-50.5 122v176q0 72 50.5 121.5t122.5 49.5h106q72 0 123 -49.5t51 -121.5v-176q0 -72 -51 -122t-123 -50h-106zM226 111h120q20 0 33.5 13.5t13.5 34.5v196q0 21 -13.5 34.5t-33.5 13.5h-120q-20 0 -33.5 -13.5t-13.5 -34.5v-196
q0 -21 13.5 -34.5t33.5 -13.5zM366 564q-9 0 -16 4l-169 80q-16 7 -16 22q0 7 5 17l29 52q11 18 23 18q6 0 17 -7l153 -108q15 -12 15 -25q0 -7 -4 -14l-13 -23q-9 -16 -24 -16z" />
    <glyph glyph-name="oacute" unicode="&#xf3;" horiz-adv-x="572" 
d="M233 -3q-72 0 -122.5 50t-50.5 122v176q0 72 50.5 121.5t122.5 49.5h106q72 0 123 -49.5t51 -121.5v-176q0 -72 -51 -122t-123 -50h-106zM226 111h120q20 0 33.5 13.5t13.5 34.5v196q0 21 -13.5 34.5t-33.5 13.5h-120q-20 0 -33.5 -13.5t-13.5 -34.5v-196
q0 -21 13.5 -34.5t33.5 -13.5zM206 564q-15 0 -24 16l-13 23q-4 7 -4 14q0 13 15 25l153 108q11 7 17 7q13 0 23 -18l29 -52q5 -10 5 -17q0 -15 -16 -22l-169 -80q-7 -4 -16 -4z" />
    <glyph glyph-name="ocircumflex" unicode="&#xf4;" horiz-adv-x="572" 
d="M233 -3q-72 0 -122.5 50t-50.5 122v176q0 72 50.5 121.5t122.5 49.5h106q72 0 123 -49.5t51 -121.5v-176q0 -72 -51 -122t-123 -50h-106zM226 111h120q20 0 33.5 13.5t13.5 34.5v196q0 21 -13.5 34.5t-33.5 13.5h-120q-20 0 -33.5 -13.5t-13.5 -34.5v-196
q0 -21 13.5 -34.5t33.5 -13.5zM174 564q-11 0 -21 10l-18 19q-9 11 -9 21q0 11 9 20l84 93q8 8 20 8h91q14 0 21 -8l85 -92q9 -11 9 -20q0 -10 -9 -21l-18 -19q-11 -11 -21 -11q-11 0 -22 9l-90 80l-89 -79q-11 -10 -22 -10z" />
    <glyph glyph-name="otilde" unicode="&#xf5;" horiz-adv-x="572" 
d="M233 -3q-72 0 -122.5 50t-50.5 122v176q0 72 50.5 121.5t122.5 49.5h106q72 0 123 -49.5t51 -121.5v-176q0 -72 -51 -122t-123 -50h-106zM226 111h120q20 0 33.5 13.5t13.5 34.5v196q0 21 -13.5 34.5t-33.5 13.5h-120q-20 0 -33.5 -13.5t-13.5 -34.5v-196
q0 -21 13.5 -34.5t33.5 -13.5zM171 570l-68 26l14 34q14 33 42 55t64 22q17 0 36 -6l101 -31q8 -2 11 -2q11 0 16 11l12 26l69 -27l-15 -34q-30 -69 -101 -69q-32 0 -51 6l-90 28q-8 2 -10 2q-11 0 -18 -13z" />
    <glyph glyph-name="odieresis" unicode="&#xf6;" horiz-adv-x="572" 
d="M233 -3q-72 0 -122.5 50t-50.5 122v176q0 72 50.5 121.5t122.5 49.5h106q72 0 123 -49.5t51 -121.5v-176q0 -72 -51 -122t-123 -50h-106zM226 111h120q20 0 33.5 13.5t13.5 34.5v196q0 21 -13.5 34.5t-33.5 13.5h-120q-20 0 -33.5 -13.5t-13.5 -34.5v-196
q0 -21 13.5 -34.5t33.5 -13.5zM349 590q-11 0 -19 7.5t-8 17.5v66q0 10 8 17.5t19 7.5h69q10 0 17 -7.5t7 -17.5v-66q0 -10 -7.5 -17.5t-17.5 -7.5h-68zM155 590q-10 0 -18 7.5t-8 17.5v66q0 10 8 17.5t18 7.5h69q10 0 17.5 -7.5t7.5 -17.5v-66q0 -10 -8 -17.5t-18 -7.5h-68
z" />
    <glyph glyph-name="divide" unicode="&#xf7;" horiz-adv-x="552" 
d="M53 292v124h446v-124h-446zM238 473q-11 0 -19.5 8.5t-8.5 19.5v75q0 11 8.5 19.5t19.5 8.5h77q11 0 19.5 -8.5t8.5 -19.5v-75q0 -11 -9 -19.5t-20 -8.5h-76zM238 103q-11 0 -19.5 8.5t-8.5 19.5v75q0 11 8.5 19.5t19.5 8.5h77q11 0 19.5 -8.5t8.5 -19.5v-75
q0 -11 -9 -19.5t-20 -8.5h-76z" />
    <glyph glyph-name="oslash" unicode="&#xf8;" horiz-adv-x="572" 
d="M125 -53l-77 54l45 66q-33 44 -33 102v176q0 72 50.5 121.5t122.5 49.5h106q34 0 61 -10l47 66l78 -56l-47 -67q35 -46 35 -104v-176q0 -72 -51 -122t-123 -50h-106q-34 0 -64 12zM239 109h109q20 0 33.5 13.5t13.5 34.5v175zM224 405q-20 0 -33.5 -13.5t-13.5 -34.5
v-171l153 219h-106z" />
    <glyph glyph-name="ugrave" unicode="&#xf9;" horiz-adv-x="594" 
d="M218 -3q-62 0 -105 43.5t-43 104.5v368h126v-330q0 -39 15.5 -55.5t58.5 -16.5h49q28 0 46.5 20t18.5 56v326h130v-513h-130v46q-33 -49 -89 -49h-77zM376 564q-9 0 -16 4l-169 80q-16 7 -16 22q0 7 5 17l29 52q11 18 23 18q6 0 17 -7l153 -108q15 -12 15 -25
q0 -7 -4 -14l-13 -23q-9 -16 -24 -16z" />
    <glyph glyph-name="uacute" unicode="&#xfa;" horiz-adv-x="594" 
d="M218 -3q-62 0 -105 43.5t-43 104.5v368h126v-330q0 -39 15.5 -55.5t58.5 -16.5h49q28 0 46.5 20t18.5 56v326h130v-513h-130v46q-33 -49 -89 -49h-77zM216 564q-15 0 -24 16l-13 23q-4 7 -4 14q0 13 15 25l153 108q10 7 17 7q12 0 23 -18l29 -52q5 -10 5 -17
q0 -15 -16 -22l-169 -80q-7 -4 -16 -4z" />
    <glyph glyph-name="ucircumflex" unicode="&#xfb;" horiz-adv-x="594" 
d="M218 -3q-62 0 -105 43.5t-43 104.5v368h126v-330q0 -39 15.5 -55.5t58.5 -16.5h49q28 0 46.5 20t18.5 56v326h130v-513h-130v46q-33 -49 -89 -49h-77zM184 564q-11 0 -21 10l-18 19q-9 11 -9 21q0 11 9 20l84 93q8 8 20 8h91q14 0 21 -8l85 -92q9 -11 9 -20q0 -10 -9 -21
l-18 -19q-11 -11 -21 -11q-11 0 -22 9l-90 80l-89 -79q-11 -10 -22 -10z" />
    <glyph glyph-name="udieresis" unicode="&#xfc;" horiz-adv-x="594" 
d="M218 -3q-62 0 -105 43.5t-43 104.5v368h126v-330q0 -39 15.5 -55.5t58.5 -16.5h49q28 0 46.5 20t18.5 56v326h130v-513h-130v46q-33 -49 -89 -49h-77zM359 590q-11 0 -19 7.5t-8 17.5v66q0 10 8 17.5t19 7.5h69q10 0 17 -7.5t7 -17.5v-66q0 -10 -7.5 -17.5t-17.5 -7.5
h-68zM165 590q-10 0 -18 7.5t-8 17.5v66q0 10 8 17.5t18 7.5h69q10 0 17.5 -7.5t7.5 -17.5v-66q0 -10 -8 -17.5t-18 -7.5h-68z" />
    <glyph glyph-name="yacute" unicode="&#xfd;" horiz-adv-x="537" 
d="M69 -210v114h56q12 0 20.5 3.5t14.5 11.5t9 14t8 18l30 72l-155 341q-17 36 -17 63v86h125v-57q0 -21 4 -30l105 -252l104 252q4 9 4 30v57h125v-86q0 -21 -17 -62l-198 -460q-24 -55 -52 -85t-72 -30h-94zM188 564q-15 0 -24 16l-13 23q-4 7 -4 14q0 13 15 25l153 108
q11 7 17 7q12 0 23 -18l29 -52q5 -10 5 -17q0 -15 -16 -22l-169 -80q-7 -4 -16 -4z" />
    <glyph glyph-name="thorn" unicode="&#xfe;" horiz-adv-x="596" 
d="M80 -199v911h121v-247q30 51 98 51h89q62 0 105 -43t43 -105v-223q0 -61 -43 -104.5t-105 -43.5h-92q-51 0 -85 38v-234h-131zM280 111h66q28 0 46 19.5t18 55.5v145q0 39 -15.5 55.5t-58.5 16.5h-63q-28 0 -46.5 -20t-18.5 -57v-145q0 -38 15 -54t57 -16z" />
    <glyph glyph-name="ydieresis" unicode="&#xff;" horiz-adv-x="537" 
d="M69 -210v114h56q12 0 20.5 3.5t14.5 11.5t9 14t8 18l30 72l-155 341q-17 36 -17 63v86h125v-57q0 -21 4 -30l105 -252l104 252q4 9 4 30v57h125v-86q0 -21 -17 -62l-198 -460q-24 -55 -52 -85t-72 -30h-94zM331 590q-11 0 -19 7.5t-8 17.5v66q0 10 8 17.5t19 7.5h69
q10 0 17 -7.5t7 -17.5v-66q0 -10 -7.5 -17.5t-17.5 -7.5h-68zM137 590q-10 0 -18 7.5t-8 17.5v66q0 10 8 17.5t18 7.5h69q10 0 17.5 -7.5t7.5 -17.5v-66q0 -10 -8 -17.5t-18 -7.5h-68z" />
    <glyph glyph-name="Amacron" unicode="&#x100;" horiz-adv-x="600" 
d="M45 0v51q0 44 11 79l182 582h124l182 -582q11 -35 11 -79v-51h-125v52q0 18 -2 24l-15 55h-226l-15 -55q-2 -6 -2 -24v-52h-125zM435 785h-269v95h269v-95zM226 259h148l-74 238z" />
    <glyph glyph-name="amacron" unicode="&#x101;" horiz-adv-x="562" 
d="M210 -3q-75 0 -117.5 44t-42.5 112q0 53 30.5 96t90.5 54l170 30q31 6 31 39q0 12 -10 21.5t-29 9.5h-119q-14 0 -23 -12.5t-11 -25.5l-2 -13l-112 27q0 6 2 15t11.5 32.5t24 41.5t44.5 33t69 15h130q63 0 102 -41.5t39 -109.5v-365h-121v49q-9 -23 -38 -37.5t-61 -14.5
h-58zM417 613h-269v95h269v-95zM209 111h99q57 0 57 68v55q-7 -8 -31 -12l-132 -25q-31 -7 -31 -40q0 -18 10.5 -32t27.5 -14z" />
    <glyph glyph-name="Abreve" unicode="&#x102;" horiz-adv-x="600" 
d="M45 0v51q0 44 11 79l182 582h124l182 -582q11 -35 11 -79v-51h-125v52q0 18 -2 24l-15 55h-226l-15 -55q-2 -6 -2 -24v-52h-125zM275 772q-42 0 -69.5 29.5t-27.5 72.5v61h77v-71q0 -9 6.5 -16t16.5 -7h45q10 0 17 7t7 16v71h78v-61q0 -42 -29 -72t-70 -30h-51zM226 259
h148l-74 238z" />
    <glyph glyph-name="abreve" unicode="&#x103;" horiz-adv-x="562" 
d="M210 -3q-75 0 -117.5 44t-42.5 112q0 53 30.5 96t90.5 54l170 30q31 6 31 39q0 12 -10 21.5t-29 9.5h-119q-14 0 -23 -12.5t-11 -25.5l-2 -13l-112 27q0 6 2 15t11.5 32.5t24 41.5t44.5 33t69 15h130q63 0 102 -41.5t39 -109.5v-365h-121v49q-9 -23 -38 -37.5t-61 -14.5
h-58zM257 572q-42 0 -69.5 29.5t-27.5 72.5v61h77v-71q0 -9 6.5 -16t16.5 -7h45q10 0 17 7t7 16v71h78v-61q0 -42 -29 -72t-70 -30h-51zM209 111h99q57 0 57 68v55q-7 -8 -31 -12l-132 -25q-31 -7 -31 -40q0 -18 10.5 -32t27.5 -14z" />
    <glyph glyph-name="Aogonek" unicode="&#x104;" horiz-adv-x="600" 
d="M582 -153q-40 -28 -62.5 -37t-59.5 -9q-53 0 -83.5 22.5t-30.5 65.5q0 62 84 112v51q0 18 -2 24l-15 55h-226l-15 -55q-2 -6 -2 -24v-52h-125v51q0 44 11 79l182 582h124l182 -582q11 -35 11 -79v-51h-30q-42 -44 -54 -63t-12 -38q0 -7 5.5 -12.5t15.5 -5.5q21 0 62 22z
M226 259h148l-74 238z" />
    <glyph glyph-name="aogonek" unicode="&#x105;" horiz-adv-x="562" 
d="M519 -153q-40 -28 -62.5 -37t-59.5 -9q-53 0 -83.5 22.5t-30.5 65.5q0 62 84 112v48q-9 -23 -38 -37.5t-61 -14.5h-58q-75 0 -117.5 44t-42.5 112q0 53 30.5 96t90.5 54l170 30q31 6 31 39q0 12 -10 21.5t-29 9.5h-119q-14 0 -23 -12.5t-11 -25.5l-2 -13l-112 27
q0 6 2 15t11.5 32.5t24 41.5t44.5 33t69 15h130q63 0 102 -41.5t39 -109.5v-365h-26q-42 -44 -54 -63t-12 -38q0 -7 5.5 -12.5t15.5 -5.5q21 0 62 22zM209 111h99q57 0 57 68v55q-7 -8 -31 -12l-132 -25q-31 -7 -31 -40q0 -18 10.5 -32t27.5 -14z" />
    <glyph glyph-name="Cacute" unicode="&#x106;" horiz-adv-x="636" 
d="M268 0q-79 0 -134.5 55.5t-55.5 134.5v332q0 79 55.5 134.5t134.5 55.5h132q72 0 125.5 -47.5t63.5 -118.5l-122 -33l-7 19q-10 27 -21.5 39t-32.5 12h-145q-22 0 -38 -16t-16 -39v-344q0 -23 16 -39t38 -16h143q42 0 56 51l5 19l122 -32q-9 -72 -62.5 -119.5
t-125.5 -47.5h-131zM254 764q-15 0 -24 16l-13 23q-4 7 -4 14q0 13 15 25l153 108q11 7 17 7q12 0 23 -18l29 -52q5 -10 5 -17q0 -15 -16 -22l-169 -80q-7 -4 -16 -4z" />
    <glyph glyph-name="cacute" unicode="&#x107;" horiz-adv-x="541" 
d="M235 -3q-73 0 -124 51t-51 124v169q0 73 51 124t124 51h93q66 0 115.5 -44t58.5 -109l-112 -30l-6 18q-15 46 -50 46h-106q-20 0 -34.5 -14.5t-14.5 -35.5v-181q0 -21 14.5 -35.5t34.5 -14.5h104q38 0 51 46l5 18l112 -30q-8 -65 -57.5 -109t-115.5 -44h-92zM201 564
q-15 0 -24 16l-13 23q-4 7 -4 14q0 13 15 25l153 108q10 7 17 7q13 0 23 -18l29 -52q5 -10 5 -17q0 -15 -16 -22l-169 -80q-7 -4 -16 -4z" />
    <glyph glyph-name="Ccaron" unicode="&#x10c;" horiz-adv-x="636" 
d="M268 0q-79 0 -134.5 55.5t-55.5 134.5v332q0 79 55.5 134.5t134.5 55.5h132q72 0 125.5 -47.5t63.5 -118.5l-122 -33l-7 19q-10 27 -21.5 39t-32.5 12h-145q-22 0 -38 -16t-16 -39v-344q0 -23 16 -39t38 -16h143q42 0 56 51l5 19l122 -32q-9 -72 -62.5 -119.5
t-125.5 -47.5h-131zM290 764q-14 0 -21 8l-84 92q-10 10 -10 20t9 21l18 19q11 11 21 11q11 0 22 -9l90 -80l89 79q11 10 22 10t21 -10l18 -19q9 -10 9 -21q0 -12 -9 -20l-84 -93q-8 -8 -20 -8h-91z" />
    <glyph glyph-name="ccaron" unicode="&#x10d;" horiz-adv-x="541" 
d="M235 -3q-73 0 -124 51t-51 124v169q0 73 51 124t124 51h93q66 0 115.5 -44t58.5 -109l-112 -30l-6 18q-15 46 -50 46h-106q-20 0 -34.5 -14.5t-14.5 -35.5v-181q0 -21 14.5 -35.5t34.5 -14.5h104q38 0 51 46l5 18l112 -30q-8 -65 -57.5 -109t-115.5 -44h-92zM236 564
q-14 0 -21 8l-84 92q-10 10 -10 20t9 21l18 19q11 11 21 11q11 0 22 -9l90 -80l89 79q11 10 22 10t21 -10l18 -19q9 -10 9 -21q0 -12 -9 -20l-84 -93q-8 -8 -20 -8h-91z" />
    <glyph glyph-name="Dcaron" unicode="&#x10e;" horiz-adv-x="684" 
d="M95 0v712h321q78 0 134 -55.5t56 -134.5v-332q0 -79 -56 -134.5t-134 -55.5h-321zM225 129h197q22 0 38 16t16 39v344q0 23 -16 39t-38 16h-197v-454zM298 764q-14 0 -21 8l-84 92q-10 10 -10 20t9 21l18 19q11 11 21 11q11 0 22 -9l90 -80l89 79q11 10 22 10t21 -10
l18 -19q9 -10 9 -21q0 -12 -9 -20l-84 -93q-8 -8 -20 -8h-91z" />
    <glyph glyph-name="dcaron" unicode="&#x10f;" horiz-adv-x="641" 
d="M208 -3q-62 0 -105 43.5t-43 104.5v223q0 62 43 105t105 43h92q58 0 85 -38v234h131v-712h-121v49q-11 -24 -39.5 -38t-58.5 -14h-89zM261 111h62q28 0 46.5 20t18.5 56v146q0 38 -15 54t-57 16h-66q-28 0 -46 -19.5t-18 -55.5v-145q0 -39 15.5 -55.5t59.5 -16.5z
M711 699q0 -2 -2 -7l-2 -4l-88 -149q-9 -14 -21 -14q-7 0 -13 3l-30 15q-13 7 -13 20q0 2 2 12l64 162q5 13 22 13q4 0 10 -2l57 -28q14 -7 14 -21z" />
    <glyph glyph-name="Dcroat" unicode="&#x110;" horiz-adv-x="684" 
d="M95 0v304h-106v115h106v293h321q78 0 134 -55.5t56 -134.5v-332q0 -79 -55.5 -134.5t-133.5 -55.5h-322zM225 129h197q22 0 38 16t16 39v344q0 23 -16 39t-38 16h-197v-164h112v-115h-112v-175z" />
    <glyph glyph-name="dcroat" unicode="&#x111;" horiz-adv-x="596" 
d="M550 565h-34v-565h-121v49q-11 -24 -39.5 -38t-58.5 -14h-89q-62 0 -105 43.5t-43 104.5v223q0 62 43 105t105 43h92q58 0 85 -38v87h-104v95h104v52h131v-52h34v-95zM261 111h62q28 0 46.5 20t18.5 56v146q0 38 -15 54t-57 16h-66q-28 0 -46 -19.5t-18 -55.5v-145
q0 -39 15.5 -55.5t59.5 -16.5z" />
    <glyph glyph-name="Emacron" unicode="&#x112;" horiz-adv-x="671" 
d="M95 0v712h511v-129h-381v-153h291v-131h-291v-170h381v-129h-511zM490 785h-269v95h269v-95z" />
    <glyph glyph-name="emacron" unicode="&#x113;" horiz-adv-x="571" 
d="M235 -3q-73 0 -124 51t-51 124v169q0 73 50 124t122 51h113q72 0 118.5 -50.5t46.5 -124.5v-107q0 -11 -8.5 -19t-19.5 -8h-303v-46q0 -21 14.5 -35.5t34.5 -14.5h117q36 0 51 46l3 9l112 -25q-11 -62 -59.5 -103t-111.5 -41h-105zM419 613h-269v95h269v-95zM179 320h212
v32q0 50 -40 50h-126q-20 0 -33 -14.5t-13 -35.5v-32z" />
    <glyph glyph-name="Edotaccent" unicode="&#x116;" horiz-adv-x="671" 
d="M95 0v712h511v-129h-381v-153h291v-131h-291v-170h381v-129h-511zM298 790q-11 0 -19.5 8.5t-8.5 19.5v75q0 11 8.5 19.5t19.5 8.5h76q11 0 19 -8.5t8 -19.5v-75q0 -11 -8.5 -19.5t-19.5 -8.5h-75z" />
    <glyph glyph-name="edotaccent" unicode="&#x117;" horiz-adv-x="571" 
d="M235 -3q-73 0 -124 51t-51 124v169q0 73 50 124t122 51h113q72 0 118.5 -50.5t46.5 -124.5v-107q0 -11 -8.5 -19t-19.5 -8h-303v-46q0 -21 14.5 -35.5t34.5 -14.5h117q36 0 51 46l3 9l112 -25q-11 -62 -59.5 -103t-111.5 -41h-105zM179 320h212v32q0 50 -40 50h-126
q-20 0 -33 -14.5t-13 -35.5v-32zM247 598q-11 0 -19.5 8.5t-8.5 19.5v75q0 11 8.5 19.5t19.5 8.5h76q11 0 19 -8.5t8 -19.5v-75q0 -11 -8.5 -19.5t-19.5 -8.5h-75z" />
    <glyph glyph-name="Eogonek" unicode="&#x118;" horiz-adv-x="671" 
d="M95 0v712h511v-129h-381v-153h291v-131h-291v-170h381v-129h-47q-42 -44 -54 -63t-12 -38q0 -7 5.5 -12.5t15.5 -5.5q21 0 62 22l40 -56q-40 -28 -62.5 -37t-59.5 -9q-53 0 -83.5 22.5t-30.5 65.5q0 61 82 111h-367z" />
    <glyph glyph-name="eogonek" unicode="&#x119;" horiz-adv-x="571" 
d="M235 -3q-73 0 -124 51t-51 124v169q0 73 50 124t122 51h113q72 0 118.5 -50.5t46.5 -124.5v-107q0 -11 -8.5 -19t-19.5 -8h-303v-46q0 -21 14.5 -35.5t34.5 -14.5h117q36 0 51 46l3 9l112 -25q-9 -53 -46.5 -91.5t-90.5 -49.5q-42 -44 -54 -63t-12 -38q0 -7 5.5 -12.5
t15.5 -5.5q21 0 62 22l40 -56q-40 -28 -62.5 -37t-59.5 -9q-53 0 -83.5 22.5t-30.5 65.5q0 59 77 108h-37zM179 320h212v32q0 50 -40 50h-126q-20 0 -33 -14.5t-13 -35.5v-32z" />
    <glyph glyph-name="Ecaron" unicode="&#x11a;" horiz-adv-x="671" 
d="M95 0v712h511v-129h-381v-153h291v-131h-291v-170h381v-129h-511zM291 764q-14 0 -21 8l-84 92q-10 10 -10 20t9 21l18 19q11 11 21 11q11 0 22 -9l90 -80l89 79q11 10 22 10t21 -10l18 -19q9 -10 9 -21q0 -12 -9 -20l-84 -93q-8 -8 -20 -8h-91z" />
    <glyph glyph-name="ecaron" unicode="&#x11b;" horiz-adv-x="571" 
d="M235 -3q-73 0 -124 51t-51 124v169q0 73 50 124t122 51h113q72 0 118.5 -50.5t46.5 -124.5v-107q0 -11 -8.5 -19t-19.5 -8h-303v-46q0 -21 14.5 -35.5t34.5 -14.5h117q36 0 51 46l3 9l112 -25q-11 -62 -59.5 -103t-111.5 -41h-105zM239 564q-14 0 -21 8l-84 92
q-10 10 -10 20t9 21l18 19q11 11 21 11q12 0 22 -9l90 -80l89 79q11 10 22 10t21 -10l18 -19q9 -10 9 -21q0 -12 -9 -20l-84 -93q-8 -8 -20 -8h-91zM179 320h212v32q0 50 -40 50h-126q-20 0 -33 -14.5t-13 -35.5v-32z" />
    <glyph glyph-name="Gbreve" unicode="&#x11e;" horiz-adv-x="657" 
d="M268 0q-79 0 -134.5 55.5t-55.5 134.5v332q0 79 55.5 134.5t134.5 55.5h132q72 0 125.5 -47.5t63.5 -118.5l-122 -33l-7 19q-10 27 -21.5 39t-32.5 12h-145q-22 0 -38 -16t-16 -39v-344q0 -23 16 -39t38 -16h144q22 0 38 16.5t16 38.5v115h-98v122h228v-231
q0 -79 -56 -134.5t-134 -55.5h-131zM306 772q-42 0 -69.5 29.5t-27.5 72.5v61h77v-71q0 -9 6.5 -16t16.5 -7h45q10 0 17 7t7 16v71h78v-61q0 -42 -29 -72t-70 -30h-51z" />
    <glyph glyph-name="gbreve" unicode="&#x11f;" horiz-adv-x="575" 
d="M236 -210q-66 0 -115.5 43.5t-57.5 109.5l112 29l5 -21q10 -46 51 -46h87q21 0 35.5 14.5t14.5 34.5v108q-23 -38 -85 -38h-74q-62 0 -105.5 43.5t-43.5 104.5v196q0 60 46.5 104t103.5 44h71q66 0 87 -45v42h127v-549q0 -72 -51 -123t-124 -51h-84zM243 138h48
q44 0 59.5 16t15.5 55v120q0 35 -18 54.5t-46 19.5h-56q-41 0 -54.5 -15.5t-13.5 -54.5v-119q0 -37 18.5 -56.5t46.5 -19.5zM261 572q-42 0 -69.5 29.5t-27.5 72.5v61h77v-71q0 -9 6.5 -16t16.5 -7h45q10 0 17 7t7 16v71h78v-61q0 -42 -29 -72t-70 -30h-51z" />
    <glyph glyph-name="Gcommaaccent" unicode="&#x122;" horiz-adv-x="657" 
d="M268 0q-79 0 -134.5 55.5t-55.5 134.5v332q0 79 55.5 134.5t134.5 55.5h132q72 0 125.5 -47.5t63.5 -118.5l-122 -33l-7 19q-10 27 -21.5 39t-32.5 12h-145q-22 0 -38 -16t-16 -39v-344q0 -23 16 -39t38 -16h144q22 0 38 16.5t16 38.5v115h-98v122h228v-231
q0 -79 -56 -134.5t-134 -55.5h-131zM400 -64q0 -2 -2 -6l-2 -5l-88 -149q-9 -14 -21 -14q-7 0 -13 3l-30 15q-13 6 -13 20q0 2 2 12l64 162q5 13 22 13q4 0 10 -2l57 -28q14 -7 14 -21z" />
    <glyph glyph-name="gcommaaccent" unicode="&#x123;" horiz-adv-x="575" 
d="M236 -210q-66 0 -115.5 43.5t-57.5 109.5l112 29l5 -21q10 -46 51 -46h87q21 0 35.5 14.5t14.5 34.5v108q-23 -38 -85 -38h-74q-62 0 -105.5 43.5t-43.5 104.5v196q0 60 46.5 104t103.5 44h71q66 0 87 -45v42h127v-549q0 -72 -51 -123t-124 -51h-84zM243 138h48
q44 0 59.5 16t15.5 55v120q0 35 -18 54.5t-46 19.5h-56q-41 0 -54.5 -15.5t-13.5 -54.5v-119q0 -37 18.5 -56.5t46.5 -19.5zM372 765q0 -4 -2 -12l-64 -163q-6 -13 -22 -13q-4 0 -10 2l-57 28q-14 7 -14 21q0 2 2 6l2 5l88 149q8 14 21 14q7 0 13 -3l30 -14q13 -7 13 -20z
" />
    <glyph glyph-name="Imacron" unicode="&#x12a;" horiz-adv-x="487" 
d="M78 0v129h100v454h-100v129h331v-129h-100v-454h100v-129h-331zM378 785h-269v95h269v-95z" />
    <glyph glyph-name="imacron" unicode="&#x12b;" horiz-adv-x="439" 
d="M70 0v114h107v286h-92v113h218v-399h86v-114h-319zM354 613h-269v95h269v-95z" />
    <glyph glyph-name="Iogonek" unicode="&#x12e;" horiz-adv-x="487" 
d="M78 0v129h100v454h-100v129h331v-129h-100v-454h100v-129h-41q-42 -44 -54 -63t-12 -38q0 -7 5.5 -12.5t15.5 -5.5q21 0 62 22l40 -56q-40 -28 -62.5 -37t-59.5 -9q-53 0 -83.5 22.5t-30.5 65.5q0 61 82 111h-193z" />
    <glyph glyph-name="iogonek" unicode="&#x12f;" horiz-adv-x="439" 
d="M70 0v114h107v286h-92v113h218v-399h86v-114h-43q-42 -44 -54 -63t-12 -38q0 -7 5.5 -12.5t15.5 -5.5q21 0 62 22l40 -56q-40 -28 -62.5 -37t-59.5 -9q-53 0 -83.5 22.5t-30.5 65.5q0 61 82 111h-179zM193 599q-8 0 -14 6t-6 14v90q0 8 6 14t14 6h94q8 0 14 -6t6 -14v-90
q0 -8 -6 -14t-14 -6h-94z" />
    <glyph glyph-name="Idotaccent" unicode="&#x130;" horiz-adv-x="487" 
d="M78 0v129h100v454h-100v129h331v-129h-100v-454h100v-129h-331zM206 790q-11 0 -19.5 8.5t-8.5 19.5v75q0 11 8.5 19.5t19.5 8.5h76q11 0 19 -8.5t8 -19.5v-75q0 -11 -8.5 -19.5t-19.5 -8.5h-75z" />
    <glyph glyph-name="dotlessi" unicode="&#x131;" horiz-adv-x="439" 
d="M70 0v114h107v286h-92v113h218v-399h86v-114h-319z" />
    <glyph glyph-name="Kcommaaccent" unicode="&#x136;" horiz-adv-x="653" 
d="M95 0v712h130v-304l224 304h148l-200 -286l167 -257q39 -60 39 -145v-24h-128v24q0 30 -3 43.5t-15 31.5l-140 213l-92 -135v-177h-130zM411 -64q0 -2 -2 -6l-2 -5l-88 -149q-9 -14 -21 -14q-7 0 -13 3l-30 15q-13 6 -13 20q0 2 2 12l64 162q5 13 22 13q4 0 10 -2l57 -28
q14 -7 14 -21z" />
    <glyph glyph-name="kcommaaccent" unicode="&#x137;" horiz-adv-x="577" 
d="M80 0v712h129v-401l168 202h165l-162 -190l104 -160q38 -58 38 -140v-23h-124v23q0 29 -3 42t-14 31l-88 134l-85 -104v-126h-128zM373 -64q0 -2 -2 -6l-2 -5l-88 -149q-9 -14 -21 -14q-7 0 -13 3l-30 15q-13 6 -13 20q0 2 2 12l64 162q5 13 22 13q4 0 10 -2l57 -28
q14 -7 14 -21z" />
    <glyph glyph-name="Lacute" unicode="&#x139;" horiz-adv-x="606" 
d="M95 0v712h130v-583h346v-129h-476zM80 764q-15 0 -24 16l-13 23q-4 7 -4 14q0 13 15 25l153 108q11 7 17 7q12 0 23 -18l29 -52q5 -10 5 -17q0 -15 -16 -22l-169 -80q-7 -4 -16 -4z" />
    <glyph glyph-name="lacute" unicode="&#x13a;" horiz-adv-x="423" 
d="M50 0v114h108v485h-93v113h219v-598h84v-114h-318zM120 764q-15 0 -24 16l-13 23q-4 7 -4 14q0 13 15 25l153 108q10 7 17 7q12 0 23 -18l29 -52q5 -10 5 -17q0 -15 -16 -22l-169 -80q-7 -4 -16 -4z" />
    <glyph glyph-name="Lcommaaccent" unicode="&#x13b;" horiz-adv-x="606" 
d="M95 0v712h130v-583h346v-129h-476zM387 -64q0 -2 -2 -6l-2 -5l-88 -149q-9 -14 -21 -14q-7 0 -13 3l-30 15q-13 6 -13 20q0 2 2 12l64 162q5 13 22 13q4 0 10 -2l57 -28q14 -7 14 -21z" />
    <glyph glyph-name="lcommaaccent" unicode="&#x13c;" horiz-adv-x="423" 
d="M50 0v114h108v485h-93v113h219v-598h84v-114h-318zM296 -64q0 -2 -2 -6l-2 -5l-88 -149q-9 -14 -21 -14q-7 0 -13 3l-30 15q-13 6 -13 20q0 2 2 12l64 162q5 13 22 13q4 0 10 -2l57 -28q14 -7 14 -21z" />
    <glyph glyph-name="Lcaron" unicode="&#x13d;" horiz-adv-x="606" 
d="M95 0v712h130v-583h346v-129h-476zM446 699q0 -2 -2 -7l-2 -4l-88 -149q-9 -14 -21 -14q-7 0 -13 3l-30 15q-13 7 -13 20q0 2 2 12l64 162q5 13 22 13q4 0 10 -2l57 -28q14 -7 14 -21z" />
    <glyph glyph-name="lcaron" unicode="&#x13e;" horiz-adv-x="423" 
d="M50 0v114h108v485h-93v113h219v-598h84v-114h-318zM482 699q0 -2 -2 -7l-2 -4l-88 -149q-9 -14 -21 -14q-7 0 -13 3l-30 15q-13 7 -13 20q0 2 2 12l64 162q5 13 22 13q4 0 10 -2l57 -28q14 -7 14 -21z" />
    <glyph glyph-name="Lslash" unicode="&#x141;" horiz-adv-x="606" 
d="M95 0v276l-73 -29v108l73 29v328h129v-276l153 61v-110l-153 -60v-198h347v-129h-476z" />
    <glyph glyph-name="lslash" unicode="&#x142;" horiz-adv-x="423" 
d="M50 0v114h108v190l-93 -37v110l93 37v185h-93v113h219v-248l84 34v-110l-84 -34v-240h84v-114h-318z" />
    <glyph glyph-name="Nacute" unicode="&#x143;" horiz-adv-x="701" 
d="M95 0v712h126l255 -446v446h130v-712h-123l-258 458v-458h-130zM270 764q-15 0 -24 16l-13 23q-4 7 -4 14q0 13 15 25l153 108q10 7 17 7q12 0 23 -18l29 -52q5 -10 5 -17q0 -15 -16 -22l-169 -80q-7 -4 -16 -4z" />
    <glyph glyph-name="nacute" unicode="&#x144;" horiz-adv-x="594" 
d="M80 0v513h121v-48q13 23 40.5 37t57.5 14h77q61 0 104.5 -43t43.5 -104v-369h-126v324q0 40 -15.5 59.5t-58.5 19.5h-49q-28 0 -46.5 -23t-18.5 -60v-320h-130zM217 564q-15 0 -24 16l-13 23q-4 7 -4 14q0 13 15 25l153 108q10 7 17 7q13 0 23 -18l29 -52q5 -10 5 -17
q0 -15 -16 -22l-169 -80q-7 -4 -16 -4z" />
    <glyph glyph-name="Ncommaaccent" unicode="&#x145;" horiz-adv-x="701" 
d="M95 0v712h126l255 -446v446h130v-712h-123l-258 458v-458h-130zM420 -64q0 -2 -2 -6l-2 -5l-88 -149q-9 -14 -21 -14q-7 0 -13 3l-30 15q-13 6 -13 20q0 2 2 12l64 162q5 13 22 13q4 0 10 -2l57 -28q14 -7 14 -21z" />
    <glyph glyph-name="ncommaaccent" unicode="&#x146;" horiz-adv-x="594" 
d="M80 0v513h121v-48q13 23 40.5 37t57.5 14h77q61 0 104.5 -43t43.5 -104v-369h-126v324q0 40 -15.5 59.5t-58.5 19.5h-49q-28 0 -46.5 -23t-18.5 -60v-320h-130zM369 -64q0 -2 -2 -6l-2 -5l-88 -149q-9 -14 -21 -14q-7 0 -13 3l-30 15q-13 6 -13 20q0 2 2 12l64 162
q5 13 22 13q4 0 10 -2l57 -28q14 -7 14 -21z" />
    <glyph glyph-name="Ncaron" unicode="&#x147;" horiz-adv-x="701" 
d="M95 0v712h126l255 -446v446h130v-712h-123l-258 458v-458h-130zM306 764q-14 0 -21 8l-84 92q-10 10 -10 20t9 21l18 19q11 11 21 11q11 0 22 -9l90 -80l89 79q11 10 22 10t21 -10l18 -19q9 -10 9 -21q0 -12 -9 -20l-84 -93q-8 -8 -20 -8h-91z" />
    <glyph glyph-name="ncaron" unicode="&#x148;" horiz-adv-x="594" 
d="M80 0v513h121v-48q13 23 40.5 37t57.5 14h77q61 0 104.5 -43t43.5 -104v-369h-126v324q0 40 -15.5 59.5t-58.5 19.5h-49q-28 0 -46.5 -23t-18.5 -60v-320h-130zM252 564q-14 0 -21 8l-84 92q-10 10 -10 20t9 21l18 19q11 11 21 11q11 0 22 -9l90 -80l89 79q11 10 22 10
t21 -10l18 -19q9 -10 9 -21q0 -12 -9 -20l-84 -93q-8 -8 -20 -8h-91z" />
    <glyph glyph-name="Omacron" unicode="&#x14c;" horiz-adv-x="661" 
d="M265 0q-79 0 -134.5 55.5t-55.5 134.5v332q0 79 55.5 134.5t134.5 55.5h131q78 0 134 -55.5t56 -134.5v-332q0 -79 -56 -134.5t-134 -55.5h-131zM258 129h143q23 0 39 16.5t16 38.5v344q0 22 -16 38.5t-39 16.5h-143q-22 0 -38 -16t-16 -39v-344q0 -23 16 -39t38 -16z
M465 785h-269v95h269v-95z" />
    <glyph glyph-name="omacron" unicode="&#x14d;" horiz-adv-x="572" 
d="M233 -3q-72 0 -122.5 50t-50.5 122v176q0 72 50.5 121.5t122.5 49.5h106q72 0 123 -49.5t51 -121.5v-176q0 -72 -51 -122t-123 -50h-106zM226 111h120q20 0 33.5 13.5t13.5 34.5v196q0 21 -13.5 34.5t-33.5 13.5h-120q-20 0 -33.5 -13.5t-13.5 -34.5v-196
q0 -21 13.5 -34.5t33.5 -13.5zM421 613h-269v95h269v-95z" />
    <glyph glyph-name="Ohungarumlaut" unicode="&#x150;" horiz-adv-x="661" 
d="M265 0q-79 0 -134.5 55.5t-55.5 134.5v332q0 79 55.5 134.5t134.5 55.5h131q78 0 134 -55.5t56 -134.5v-332q0 -79 -56 -134.5t-134 -55.5h-131zM258 129h143q23 0 39 16.5t16 38.5v344q0 22 -16 38.5t-39 16.5h-143q-22 0 -38 -16t-16 -39v-344q0 -23 16 -39t38 -16z
M264 764q-7 0 -10 3l-27 16q-9 7 -9 15t3 12l73 138q5 10 17 10q6 0 10 -2l42 -27q10 -7 10 -16q0 -6 -3 -10l-88 -130q-6 -9 -18 -9zM396 764q-6 0 -10 3l-26 16q-10 7 -10 17q0 2 2 5.5t2 4.5l72 138q6 11 19 11q2 0 8 -3l44 -27q9 -6 9 -15q0 -7 -3 -11l-89 -129
q-6 -10 -18 -10z" />
    <glyph glyph-name="ohungarumlaut" unicode="&#x151;" horiz-adv-x="572" 
d="M233 -3q-72 0 -122.5 50t-50.5 122v176q0 72 50.5 121.5t122.5 49.5h106q72 0 123 -49.5t51 -121.5v-176q0 -72 -51 -122t-123 -50h-106zM226 111h120q20 0 33.5 13.5t13.5 34.5v196q0 21 -13.5 34.5t-33.5 13.5h-120q-20 0 -33.5 -13.5t-13.5 -34.5v-196
q0 -21 13.5 -34.5t33.5 -13.5zM225 564q-7 0 -10 2l-28 14q-11 6 -11 16q0 4 2 10l66 154q5 12 18 12q2 0 8 -2l45 -23q11 -6 11 -17q0 -5 -2 -8l-82 -147q-6 -11 -17 -11zM347 564q-7 0 -10 2l-28 14q-11 6 -11 16q0 1 3 10l65 154q5 12 18 12q2 0 8 -2l46 -23
q11 -6 11 -17q0 -4 -3 -8l-82 -147q-6 -11 -17 -11z" />
    <glyph glyph-name="OE" unicode="&#x152;" horiz-adv-x="989" 
d="M265 -3q-79 0 -134.5 55.5t-55.5 134.5v338q0 79 55.5 134.5t134.5 55.5h131q57 0 82 -37v34h446v-129h-330v-154h240v-130h-240v-170h330v-129h-446v43q-6 -20 -33.5 -33t-51.5 -13h-128zM259 126h149q22 0 39.5 17.5t17.5 40.5v344q0 23 -17.5 40.5t-39.5 17.5h-149
q-23 0 -39 -16t-16 -39v-350q0 -23 16 -39t39 -16z" />
    <glyph glyph-name="oe" unicode="&#x153;" horiz-adv-x="905" 
d="M233 -3q-72 0 -122.5 50t-50.5 122v176q0 72 50.5 121.5t122.5 49.5h96q74 0 124 -50q51 51 122 51h104q71 0 117.5 -50.5t46.5 -124.5v-101q0 -11 -8 -19t-19 -8h-304v-53q0 -21 14.5 -35.5t35.5 -14.5h117q35 0 50 46l3 9l113 -25q-11 -62 -59.5 -103t-111.5 -41h-96
q-74 0 -125 53q-53 -53 -128 -53h-92zM226 111h120q20 0 33.5 13.5t13.5 34.5v196q0 21 -13.5 34.5t-33.5 13.5h-120q-20 0 -33.5 -13.5t-13.5 -34.5v-196q0 -21 13.5 -34.5t33.5 -13.5zM512 324h213v29q0 22 -10.5 36t-29.5 14h-126q-21 0 -34 -14.5t-13 -35.5v-29z" />
    <glyph glyph-name="Racute" unicode="&#x154;" horiz-adv-x="676" 
d="M95 0v712h321q78 0 134 -55.5t56 -134.5v-41q0 -61 -35 -109.5t-90 -68.5l84 -132q28 -43 34.5 -68t6.5 -69v-34h-129v53q0 23 -16 48l-120 190h-116v-291h-130zM225 421h197q22 0 38 15.5t16 38.5v53q0 23 -16 39t-38 16h-197v-162zM258 764q-15 0 -24 16l-13 23
q-4 7 -4 14q0 13 15 25l153 108q10 7 17 7q12 0 23 -18l29 -52q5 -10 5 -17q0 -15 -16 -22l-169 -80q-7 -4 -16 -4z" />
    <glyph glyph-name="racute" unicode="&#x155;" horiz-adv-x="394" 
d="M80 0v513h119v-51q28 51 100 51h66v-113h-90q-28 0 -46.5 -19.5t-18.5 -56.5v-324h-130zM117 564q-15 0 -24 16l-13 23q-4 7 -4 14q0 13 15 25l153 108q10 7 17 7q13 0 23 -18l29 -52q5 -10 5 -17q0 -15 -16 -22l-169 -80q-7 -4 -16 -4z" />
    <glyph glyph-name="Rcommaaccent" unicode="&#x156;" horiz-adv-x="676" 
d="M95 0v712h321q78 0 134 -55.5t56 -134.5v-41q0 -61 -35 -109.5t-90 -68.5l84 -132q28 -43 34.5 -68t6.5 -69v-34h-129v53q0 23 -16 48l-120 190h-116v-291h-130zM225 421h197q22 0 38 15.5t16 38.5v53q0 23 -16 39t-38 16h-197v-162zM414 -64q0 -2 -2 -6l-2 -5l-88 -149
q-9 -14 -21 -14q-7 0 -13 3l-30 15q-13 6 -13 20q0 2 2 12l64 162q5 13 22 13q4 0 10 -2l57 -28q14 -7 14 -21z" />
    <glyph glyph-name="rcommaaccent" unicode="&#x157;" horiz-adv-x="394" 
d="M80 0v513h119v-51q28 51 100 51h66v-113h-90q-28 0 -46.5 -19.5t-18.5 -56.5v-324h-130zM215 -64q0 -2 -2 -6l-2 -5l-88 -149q-9 -14 -21 -14q-7 0 -13 3l-30 15q-13 6 -13 20q0 2 2 12l64 162q5 13 22 13q4 0 10 -2l57 -28q14 -7 14 -21z" />
    <glyph glyph-name="Rcaron" unicode="&#x158;" horiz-adv-x="676" 
d="M95 0v712h321q78 0 134 -55.5t56 -134.5v-41q0 -61 -35 -109.5t-90 -68.5l84 -132q28 -43 34.5 -68t6.5 -69v-34h-129v53q0 23 -16 48l-120 190h-116v-291h-130zM225 421h197q22 0 38 15.5t16 38.5v53q0 23 -16 39t-38 16h-197v-162zM294 764q-14 0 -21 8l-84 92
q-10 10 -10 20t9 21l18 19q11 11 21 11q11 0 22 -9l90 -80l89 79q11 10 22 10t21 -10l18 -19q9 -10 9 -21q0 -12 -9 -20l-84 -93q-8 -8 -20 -8h-91z" />
    <glyph glyph-name="rcaron" unicode="&#x159;" horiz-adv-x="394" 
d="M80 0v513h119v-51q28 51 100 51h66v-113h-90q-28 0 -46.5 -19.5t-18.5 -56.5v-324h-130zM175 564q-14 0 -21 8l-84 92q-10 10 -10 20t9 21l18 19q11 11 21 11q11 0 22 -9l90 -80l89 79q11 10 22 10t21 -10l18 -19q9 -10 9 -21q0 -12 -9 -20l-84 -93q-8 -8 -20 -8h-91z
" />
    <glyph glyph-name="Sacute" unicode="&#x15a;" horiz-adv-x="638" 
d="M253 0q-73 0 -127 47.5t-63 119.5l122 32l6 -19q15 -51 55 -51h145q22 0 37.5 16t15.5 39v35q0 17 -9.5 30.5t-24.5 17.5l-225 61q-53 14 -86.5 62t-33.5 107v33q0 79 51.5 130.5t130.5 51.5h140q72 0 125.5 -47.5t62.5 -118.5l-121 -33l-6 19q-15 51 -54 51h-145
q-22 0 -38 -16t-16 -39v-25q0 -49 53 -63l187 -48q60 -15 98 -62.5t38 -110.5v-26q0 -81 -53.5 -137t-133.5 -56h-131zM237 764q-15 0 -24 16l-13 23q-4 7 -4 14q0 13 15 25l153 108q10 7 17 7q13 0 23 -18l29 -52q5 -10 5 -17q0 -15 -16 -22l-169 -80q-7 -4 -16 -4z" />
    <glyph glyph-name="sacute" unicode="&#x15b;" horiz-adv-x="557" 
d="M224 -3q-43 0 -76 15.5t-49 37.5t-25.5 43.5t-11.5 36.5l-2 16l113 29q11 -64 45 -64h121q16 0 27 10.5t11 25.5v12q0 32 -31 37l-148 22q-65 10 -97 48t-32 92v13q0 67 46.5 106t115.5 39h108q39 0 69.5 -14t45.5 -34t24 -40.5t11 -34.5l2 -14l-112 -27q0 2 -0.5 5.5
t-3 12.5t-6 15.5t-10.5 12t-16 5.5h-117q-41 0 -41 -33v-11q0 -25 31 -30l161 -27q60 -10 90.5 -51.5t30.5 -94.5v-13q0 -64 -43 -105t-117 -41h-114zM199 564q-15 0 -24 16l-13 23q-4 7 -4 14q0 13 15 25l153 108q10 7 17 7q13 0 23 -18l29 -52q5 -10 5 -17q0 -15 -16 -22
l-169 -80q-7 -4 -16 -4z" />
    <glyph glyph-name="Scedilla" unicode="&#x15e;" horiz-adv-x="638" 
d="M253 0q-73 0 -127 47.5t-63 119.5l122 32l6 -19q15 -51 55 -51h145q22 0 37.5 16t15.5 39v35q0 17 -9.5 30.5t-24.5 17.5l-225 61q-53 14 -86.5 62t-33.5 107v33q0 79 51.5 130.5t130.5 51.5h140q72 0 125.5 -47.5t62.5 -118.5l-121 -33l-6 19q-15 51 -54 51h-145
q-22 0 -38 -16t-16 -39v-25q0 -49 53 -63l187 -48q60 -15 98 -62.5t38 -110.5v-26q0 -79 -52 -135t-130 -58l-96 -173q-7 -14 -21 -14q-6 0 -13 3l-34 17q-13 6 -13 20q0 8 2 12l57 135h-18z" />
    <glyph glyph-name="scedilla" unicode="&#x15f;" horiz-adv-x="557" 
d="M224 -3q-43 0 -76 15.5t-49 37.5t-25.5 43.5t-11.5 36.5l-2 16l113 29q11 -64 45 -64h121q16 0 27 10.5t11 25.5v12q0 32 -31 37l-148 22q-65 10 -97 48t-32 92v13q0 67 46.5 106t115.5 39h108q39 0 69.5 -14t45.5 -34t24 -40.5t11 -34.5l2 -14l-112 -27q0 2 -0.5 5.5
t-3 12.5t-6 15.5t-10.5 12t-16 5.5h-117q-41 0 -41 -33v-11q0 -25 31 -30l161 -27q60 -10 90.5 -51.5t30.5 -94.5v-13q0 -62 -39.5 -102t-107.5 -43l-95 -171q-7 -14 -21 -14q-5 0 -13 3l-34 17q-13 6 -13 20q0 8 2 12l56 132h-9z" />
    <glyph glyph-name="Scaron" unicode="&#x160;" horiz-adv-x="638" 
d="M253 0q-73 0 -127 47.5t-63 119.5l122 32l6 -19q15 -51 55 -51h145q22 0 37.5 16t15.5 39v35q0 17 -9.5 30.5t-24.5 17.5l-225 61q-53 14 -86.5 62t-33.5 107v33q0 79 51.5 130.5t130.5 51.5h140q72 0 125.5 -47.5t62.5 -118.5l-121 -33l-6 19q-15 51 -54 51h-145
q-22 0 -38 -16t-16 -39v-25q0 -49 53 -63l187 -48q60 -15 98 -62.5t38 -110.5v-26q0 -81 -53.5 -137t-133.5 -56h-131zM273 764q-14 0 -21 8l-84 92q-10 10 -10 20t9 21l18 19q11 11 21 11q12 0 22 -9l90 -80l89 79q11 10 22 10t21 -10l18 -19q9 -10 9 -21q0 -12 -9 -20
l-84 -93q-8 -8 -20 -8h-91z" />
    <glyph glyph-name="scaron" unicode="&#x161;" horiz-adv-x="557" 
d="M224 -3q-43 0 -76 15.5t-49 37.5t-25.5 43.5t-11.5 36.5l-2 16l113 29q11 -64 45 -64h121q16 0 27 10.5t11 25.5v12q0 32 -31 37l-148 22q-65 10 -97 48t-32 92v13q0 67 46.5 106t115.5 39h108q39 0 69.5 -14t45.5 -34t24 -40.5t11 -34.5l2 -14l-112 -27q0 2 -0.5 5.5
t-3 12.5t-6 15.5t-10.5 12t-16 5.5h-117q-41 0 -41 -33v-11q0 -25 31 -30l161 -27q60 -10 90.5 -51.5t30.5 -94.5v-13q0 -64 -43 -105t-117 -41h-114zM234 564q-14 0 -21 8l-84 92q-10 10 -10 20t9 21l18 19q11 11 21 11q11 0 22 -9l90 -80l89 79q11 10 22 10t21 -10l18 -19
q9 -10 9 -21q0 -12 -9 -20l-84 -93q-8 -8 -20 -8h-91z" />
    <glyph glyph-name="Tcedilla" unicode="&#x162;" horiz-adv-x="581" 
d="M225 0v583h-190v129h511v-129h-191v-583h-130zM361 -64q0 -2 -2 -6l-2 -5l-88 -149q-9 -14 -21 -14q-7 0 -13 3l-30 15q-13 6 -13 20q0 2 2 12l64 162q5 13 22 13q4 0 10 -2l57 -28q14 -7 14 -21z" />
    <glyph glyph-name="tcedilla" unicode="&#x163;" horiz-adv-x="400" 
d="M251 0q-66 0 -99 28t-33 93v265h-79v114h79v150l130 35v-185h96v-114h-96v-246q0 -16 5.5 -21t18.5 -5h77v-114h-99zM284 -64q0 -2 -2 -6l-2 -5l-88 -149q-9 -14 -21 -14q-7 0 -13 3l-30 15q-13 6 -13 20q0 2 2 12l64 162q5 13 22 13q4 0 10 -2l57 -28q14 -7 14 -21z" />
    <glyph glyph-name="Tcaron" unicode="&#x164;" horiz-adv-x="581" 
d="M225 0v583h-190v129h511v-129h-191v-583h-130zM246 764q-14 0 -21 8l-84 92q-10 10 -10 20t9 21l18 19q11 11 21 11q11 0 22 -9l90 -80l89 79q11 10 22 10t21 -10l18 -19q9 -10 9 -21q0 -12 -9 -20l-84 -93q-8 -8 -20 -8h-91z" />
    <glyph glyph-name="tcaron" unicode="&#x165;" horiz-adv-x="400" 
d="M251 0q-66 0 -99 28t-33 93v265h-79v114h79v150l130 35v-185h96v-114h-96v-246q0 -16 5.5 -21t18.5 -5h77v-114h-99zM443 699q0 -2 -2 -7l-2 -4l-88 -149q-9 -14 -21 -14q-7 0 -13 3l-30 15q-13 7 -13 20q0 2 2 12l64 162q5 13 22 13q4 0 10 -2l57 -28q14 -7 14 -21z" />
    <glyph glyph-name="Umacron" unicode="&#x16a;" horiz-adv-x="667" 
d="M268 0q-79 0 -134.5 55.5t-55.5 134.5v522h129v-528q0 -23 16 -39t38 -16h143q22 0 38.5 16.5t16.5 38.5v528h130v-522q0 -79 -56 -134.5t-134 -55.5h-131zM468 785h-269v95h269v-95z" />
    <glyph glyph-name="umacron" unicode="&#x16b;" horiz-adv-x="594" 
d="M218 -3q-62 0 -105 43.5t-43 104.5v368h126v-330q0 -39 15.5 -55.5t58.5 -16.5h49q28 0 46.5 20t18.5 56v326h130v-513h-130v46q-33 -49 -89 -49h-77zM425 613h-269v95h269v-95z" />
    <glyph glyph-name="Uring" unicode="&#x16e;" horiz-adv-x="667" 
d="M268 0q-79 0 -134.5 55.5t-55.5 134.5v522h129v-528q0 -23 16 -39t38 -16h143q22 0 38.5 16.5t16.5 38.5v528h130v-522q0 -79 -56 -134.5t-134 -55.5h-131zM310 764q-29 0 -47.5 20t-18.5 50v48q0 29 18.5 50t47.5 21h47q28 0 48 -21t20 -50v-48q0 -29 -20 -49.5
t-48 -20.5h-47zM315 824h37q6 0 10 4t4 9v41q0 13 -14 13h-37q-13 0 -13 -13v-41q0 -5 4 -9t9 -4z" />
    <glyph glyph-name="uring" unicode="&#x16f;" horiz-adv-x="594" 
d="M218 -3q-62 0 -105 43.5t-43 104.5v368h126v-330q0 -39 15.5 -55.5t58.5 -16.5h49q28 0 46.5 20t18.5 56v326h130v-513h-130v46q-33 -49 -89 -49h-77zM265 564q-29 0 -47.5 20t-18.5 50v48q0 29 18.5 50t47.5 21h47q28 0 48 -21t20 -50v-48q0 -29 -20 -49.5t-48 -20.5
h-47zM270 624h37q6 0 10 4t4 9v41q0 13 -14 13h-37q-13 0 -13 -13v-41q0 -5 4 -9t9 -4z" />
    <glyph glyph-name="Uhungarumlaut" unicode="&#x170;" horiz-adv-x="667" 
d="M268 0q-79 0 -134.5 55.5t-55.5 134.5v522h129v-528q0 -23 16 -39t38 -16h143q22 0 38.5 16.5t16.5 38.5v528h130v-522q0 -79 -56 -134.5t-134 -55.5h-131zM267 764q-7 0 -10 3l-27 16q-9 7 -9 15t3 12l73 138q5 10 17 10q6 0 10 -2l42 -27q10 -7 10 -16q0 -6 -3 -10
l-88 -130q-6 -9 -18 -9zM399 764q-5 0 -10 3l-26 16q-10 7 -10 17q0 2 2 5.5t2 4.5l72 138q6 11 19 11q2 0 8 -3l44 -27q9 -6 9 -15q0 -7 -3 -11l-89 -129q-6 -10 -18 -10z" />
    <glyph glyph-name="uhungarumlaut" unicode="&#x171;" horiz-adv-x="594" 
d="M218 -3q-62 0 -105 43.5t-43 104.5v368h126v-330q0 -39 15.5 -55.5t58.5 -16.5h49q28 0 46.5 20t18.5 56v326h130v-513h-130v46q-33 -49 -89 -49h-77zM235 564q-7 0 -10 2l-28 14q-11 6 -11 16q0 4 2 10l66 154q5 12 18 12q2 0 8 -2l45 -23q11 -6 11 -17q0 -5 -2 -8
l-82 -147q-6 -11 -17 -11zM357 564q-7 0 -10 2l-28 14q-11 6 -11 16q0 1 3 10l65 154q5 12 18 12q2 0 8 -2l46 -23q11 -6 11 -17q0 -4 -3 -8l-82 -147q-6 -11 -17 -11z" />
    <glyph glyph-name="Uogonek" unicode="&#x172;" horiz-adv-x="667" 
d="M268 0q-79 0 -134.5 55.5t-55.5 134.5v522h129v-528q0 -23 16 -39t38 -16h143q22 0 38.5 16.5t16.5 38.5v528h130v-522q0 -71 -47 -124.5t-116 -63.5q-44 -45 -56 -64.5t-12 -38.5q0 -7 5.5 -12.5t15.5 -5.5q21 0 62 22l40 -56q-40 -28 -62.5 -37t-59.5 -9
q-53 0 -83.5 22.5t-30.5 65.5q0 61 82 111h-59z" />
    <glyph glyph-name="uogonek" unicode="&#x173;" horiz-adv-x="594" 
d="M537 -153q-40 -28 -62.5 -37t-59.5 -9q-53 0 -83.5 22.5t-30.5 65.5q0 61 83 111v46q-33 -49 -89 -49h-77q-62 0 -105 43.5t-43 104.5v368h126v-330q0 -39 15.5 -55.5t58.5 -16.5h49q28 0 46.5 20t18.5 56v326h130v-513h-34q-42 -44 -54 -63t-12 -38q0 -7 5.5 -12.5
t15.5 -5.5q21 0 62 22z" />
    <glyph glyph-name="Ydieresis" unicode="&#x178;" horiz-adv-x="590" 
d="M231 0v278l-173 290q-18 30 -18 56v88h125v-69q0 -9 4 -17l126 -238l127 238q4 8 4 17v69h124v-88q0 -28 -17 -56l-172 -290v-278h-130zM359 790q-11 0 -19 7.5t-8 17.5v66q0 10 8 17.5t19 7.5h69q10 0 17 -7.5t7 -17.5v-66q0 -10 -7.5 -17.5t-17.5 -7.5h-68zM165 790
q-10 0 -18 7.5t-8 17.5v66q0 10 8 17.5t18 7.5h69q10 0 17.5 -7.5t7.5 -17.5v-66q0 -10 -8 -17.5t-18 -7.5h-68z" />
    <glyph glyph-name="Zacute" unicode="&#x179;" horiz-adv-x="661" 
d="M75 0v125l352 458h-352v129h511v-126l-345 -457h345v-129h-511zM250 764q-15 0 -24 16l-13 23q-4 7 -4 14q0 13 15 25l153 108q10 7 17 7q12 0 23 -18l29 -52q5 -10 5 -17q0 -15 -16 -22l-169 -80q-7 -4 -16 -4z" />
    <glyph glyph-name="zacute" unicode="&#x17a;" horiz-adv-x="529" 
d="M55 0v102l245 298h-244v113h408v-102l-243 -297h254v-114h-420zM185 564q-15 0 -24 16l-13 23q-4 7 -4 14q0 13 15 25l153 108q10 7 17 7q13 0 23 -18l29 -52q5 -10 5 -17q0 -15 -16 -22l-169 -80q-7 -4 -16 -4z" />
    <glyph glyph-name="Zdotaccent" unicode="&#x17b;" horiz-adv-x="661" 
d="M75 0v125l352 458h-352v129h511v-126l-345 -457h345v-129h-511zM293 790q-11 0 -19.5 8.5t-8.5 19.5v75q0 11 8.5 19.5t19.5 8.5h76q11 0 19 -8.5t8 -19.5v-75q0 -11 -8.5 -19.5t-19.5 -8.5h-75z" />
    <glyph glyph-name="zdotaccent" unicode="&#x17c;" horiz-adv-x="529" 
d="M55 0v102l245 298h-244v113h408v-102l-243 -297h254v-114h-420zM228 598q-11 0 -19.5 8.5t-8.5 19.5v75q0 11 8.5 19.5t19.5 8.5h76q11 0 19 -8.5t8 -19.5v-75q0 -11 -8.5 -19.5t-19.5 -8.5h-75z" />
    <glyph glyph-name="Zcaron" unicode="&#x17d;" horiz-adv-x="661" 
d="M75 0v125l352 458h-352v129h511v-126l-345 -457h345v-129h-511zM286 764q-14 0 -21 8l-84 92q-10 10 -10 20t9 21l18 19q11 11 21 11q11 0 22 -9l90 -80l89 79q11 10 22 10t21 -10l18 -19q9 -10 9 -21q0 -12 -9 -20l-84 -93q-8 -8 -20 -8h-91z" />
    <glyph glyph-name="zcaron" unicode="&#x17e;" horiz-adv-x="529" 
d="M55 0v102l245 298h-244v113h408v-102l-243 -297h254v-114h-420zM220 564q-14 0 -21 8l-84 92q-10 10 -10 20t9 21l18 19q11 11 21 11q11 0 22 -9l90 -80l89 79q11 10 22 10t21 -10l18 -19q9 -10 9 -21q0 -12 -9 -20l-84 -93q-8 -8 -20 -8h-91z" />
    <glyph glyph-name="florin" unicode="&#x192;" 
d="M156 -204v112h87q11 0 20 11.5t9 24.5v443h-60v113h60v65q0 61 42.5 104t103.5 43h95v-113h-86q-12 0 -20.5 -11t-8.5 -24v-64h77v-113h-77v-445q0 -61 -43 -103.5t-104 -42.5h-95z" />
    <glyph glyph-name="circumflex" unicode="&#x2c6;" horiz-adv-x="439" 
d="M108 564q-11 0 -21 10l-18 19q-9 11 -9 21q0 11 9 20l84 93q8 8 20 8h91q14 0 21 -8l85 -92q9 -11 9 -20q0 -10 -9 -21l-18 -19q-11 -11 -21 -11q-11 0 -22 9l-90 80l-89 -79q-11 -10 -22 -10z" />
    <glyph glyph-name="caron" unicode="&#x2c7;" horiz-adv-x="439" 
d="M175 564q-14 0 -21 8l-84 92q-10 10 -10 20t9 21l18 19q11 11 21 11q11 0 22 -9l90 -80l89 79q11 10 22 10t21 -10l18 -19q9 -10 9 -21q0 -12 -9 -20l-84 -93q-8 -8 -20 -8h-91z" />
    <glyph glyph-name="breve" unicode="&#x2d8;" horiz-adv-x="439" 
d="M193 572q-42 0 -69.5 29.5t-27.5 72.5v61h77v-71q0 -9 6.5 -16t16.5 -7h45q10 0 17 7t7 16v71h78v-61q0 -42 -29 -72t-70 -30h-51z" />
    <glyph glyph-name="dotaccent" unicode="&#x2d9;" horiz-adv-x="439" 
d="M182 598q-11 0 -19.5 8.5t-8.5 19.5v75q0 11 8.5 19.5t19.5 8.5h76q11 0 19 -8.5t8 -19.5v-75q0 -11 -8.5 -19.5t-19.5 -8.5h-75z" />
    <glyph glyph-name="ring" unicode="&#x2da;" horiz-adv-x="439" 
d="M195 564q-29 0 -47.5 20t-18.5 50v48q0 29 18.5 50t47.5 21h47q28 0 48 -21t20 -50v-48q0 -29 -20 -49.5t-48 -20.5h-47zM200 624h37q6 0 10 4t4 9v41q0 13 -14 13h-37q-13 0 -13 -13v-41q0 -5 4 -9t9 -4z" />
    <glyph glyph-name="ogonek" unicode="&#x2db;" horiz-adv-x="439" 
d="M261 -153q-40 -28 -62.5 -37t-59.5 -9q-53 0 -83.5 22.5t-30.5 65.5q0 61 86 113h95q-44 -45 -56 -64.5t-12 -38.5q0 -7 5.5 -12.5t15.5 -5.5q21 0 62 22z" />
    <glyph glyph-name="tilde" unicode="&#x2dc;" horiz-adv-x="439" 
d="M105 570l-68 26l14 34q14 33 42 55t64 22q17 0 36 -6l101 -31q8 -2 11 -2q11 0 16 11l12 26l69 -27l-15 -34q-30 -69 -101 -69q-32 0 -51 6l-90 28q-8 2 -10 2q-11 0 -18 -13z" />
    <glyph glyph-name="hungarumlaut" unicode="&#x2dd;" horiz-adv-x="439" 
d="M132 564q-7 0 -10 2l-28 14q-11 6 -11 16q0 4 2 10l66 154q5 12 18 12q2 0 8 -2l45 -23q11 -6 11 -17q0 -5 -2 -8l-82 -147q-5 -11 -17 -11zM254 564q-7 0 -10 2l-28 14q-11 6 -11 16q0 1 3 10l65 154q5 12 18 12q2 0 8 -2l46 -23q11 -6 11 -17q0 -4 -3 -8l-82 -147
q-5 -11 -17 -11z" />
    <glyph glyph-name="pi" unicode="&#x3c0;" horiz-adv-x="410" 
d="M152 258q-19 0 -32 12.5t-13 29.5v113q0 17 13 29.5t32 12.5h107q19 0 31.5 -12.5t12.5 -29.5v-113q0 -17 -12.5 -29.5t-31.5 -12.5h-107z" />
    <glyph glyph-name="endash" unicode="&#x2013;" horiz-adv-x="640" 
d="M69 308v107h486v-107h-486z" />
    <glyph glyph-name="emdash" unicode="&#x2014;" horiz-adv-x="677" 
d="M49 308v95h639v-95h-639z" />
    <glyph glyph-name="quoteleft" unicode="&#x2018;" horiz-adv-x="394" 
d="M177 412q-8 0 -15 4l-75 37q-19 9 -19 26q0 7 5 15l142 234q11 19 26 19q8 0 18 -5l37 -19q16 -9 16 -26q0 -7 -3 -15l-105 -251q-8 -19 -27 -19z" />
    <glyph glyph-name="quoteright" unicode="&#x2019;" horiz-adv-x="394" 
d="M136 412q-8 0 -18 5l-36 19q-17 9 -17 27q0 4 4 14l105 251q8 19 26 19q9 0 16 -4l75 -37q18 -8 18 -25q0 -9 -4 -16l-143 -234q-13 -19 -26 -19z" />
    <glyph glyph-name="quotesinglbase" unicode="&#x201a;" horiz-adv-x="394" 
d="M136 -95q-8 0 -18 5l-36 20q-17 9 -17 26q0 5 4 15l105 251q8 18 26 18q11 0 16 -3l75 -37q18 -8 18 -26q0 -8 -4 -15l-143 -235q-11 -19 -26 -19z" />
    <glyph glyph-name="quotedblleft" unicode="&#x201c;" horiz-adv-x="611" 
d="M177 413q-8 0 -15 4l-75 37q-19 9 -19 26q0 7 5 15l142 234q11 19 26 19q8 0 18 -5l37 -19q16 -9 16 -26q0 -8 -3 -15l-105 -251q-8 -19 -27 -19zM394 413q-8 0 -15 4l-75 37q-19 9 -19 26q0 7 5 15l142 234q11 19 27 19q7 0 17 -5l37 -19q16 -9 16 -26q0 -8 -3 -15
l-105 -251q-8 -19 -27 -19z" />
    <glyph glyph-name="quotedblright" unicode="&#x201d;" horiz-adv-x="611" 
d="M155 412q-7 0 -17 5l-37 19q-16 9 -16 27q0 7 3 14l105 251q8 19 27 19q8 0 15 -4l75 -37q19 -9 19 -25q0 -8 -5 -16l-142 -234q-11 -19 -27 -19zM373 412q-8 0 -18 5l-36 19q-17 9 -17 27q0 4 4 14l105 251q8 19 26 19q9 0 16 -4l75 -37q18 -8 18 -25q0 -9 -4 -16
l-143 -234q-13 -19 -26 -19z" />
    <glyph glyph-name="quotedblbase" unicode="&#x201e;" horiz-adv-x="611" 
d="M352 -95q-7 0 -17 5l-37 20q-16 9 -16 26q0 8 3 15l105 251q8 18 27 18q10 0 15 -3l75 -37q19 -9 19 -26q0 -7 -5 -15l-142 -235q-11 -19 -27 -19zM136 -95q-8 0 -18 5l-36 20q-17 9 -17 26q0 5 4 15l105 251q8 18 26 18q11 0 16 -3l75 -37q18 -8 18 -26q0 -8 -4 -15
l-143 -235q-11 -19 -26 -19z" />
    <glyph glyph-name="dagger" unicode="&#x2020;" 
d="M273 -115v509h-180v124h180v194h123v-194h180v-124h-180v-509h-123z" />
    <glyph glyph-name="daggerdbl" unicode="&#x2021;" 
d="M273 -115v196h-180v124h180v189h-180v124h180v194h123v-194h180v-124h-180v-189h180v-124h-180v-196h-123z" />
    <glyph glyph-name="bullet" unicode="&#x2022;" horiz-adv-x="410" 
d="M152 258q-19 0 -32 12.5t-13 29.5v113q0 17 13 29.5t32 12.5h107q19 0 31.5 -12.5t12.5 -29.5v-113q0 -17 -12.5 -29.5t-31.5 -12.5h-107z" />
    <glyph glyph-name="ellipsis" unicode="&#x2026;" horiz-adv-x="860" 
d="M640 0q-17 0 -29 11.5t-12 27.5v102q0 16 12 27.5t29 11.5h102q17 0 29 -11.5t12 -27.5v-102q0 -16 -12 -27.5t-29 -11.5h-102zM379 0q-17 0 -29 11.5t-12 27.5v102q0 16 12 27.5t29 11.5h102q17 0 29 -11.5t12 -27.5v-102q0 -16 -12 -27.5t-29 -11.5h-102zM118 0
q-17 0 -29 11.5t-12 27.5v102q0 16 12 27.5t29 11.5h102q17 0 29 -11.5t12 -27.5v-102q0 -16 -12 -27.5t-29 -11.5h-102z" />
    <glyph glyph-name="perthousand" unicode="&#x2030;" horiz-adv-x="904" 
d="M206 -55l-100 45l362 776l100 -46zM473 114q-17 0 -29 12t-12 29v97q0 17 12 29t29 12h102q17 0 29 -12t12 -29v-97q0 -17 -12 -29t-29 -12h-102zM704 114q-17 0 -29 12t-12 29v97q0 17 12 29t29 12h102q17 0 29 -12t12 -29v-97q0 -17 -12 -29t-29 -12h-102zM99 432
q-17 0 -29 12t-12 29v97q0 17 12 29t29 12h102q17 0 29 -12t12 -29v-97q0 -17 -12 -29t-29 -12h-102z" />
    <glyph glyph-name="guilsinglleft" unicode="&#x2039;" horiz-adv-x="384" 
d="M264 116q-14 0 -26 11l-179 163q-11 9 -11 26t11 26l179 163q12 11 26 11q12 0 25 -11l24 -23q13 -11 13 -27q0 -13 -12 -26l-100 -113l100 -113q12 -13 12 -27q0 -15 -13 -26l-24 -23q-13 -11 -25 -11z" />
    <glyph glyph-name="guilsinglright" unicode="&#x203a;" horiz-adv-x="384" 
d="M121 115q-12 0 -25 11l-25 23q-12 11 -12 26q0 13 12 27l99 114l-99 112q-12 14 -12 26q0 16 12 27l25 23q13 11 25 11q14 0 26 -11l179 -163q10 -9 10 -26t-10 -26l-179 -163q-12 -11 -26 -11z" />
    <glyph glyph-name="fraction" unicode="&#x2044;" horiz-adv-x="556" 
d="M171 -58l-113 52l361 776l113 -53z" />
    <glyph glyph-name="Euro" unicode="&#x20ac;" 
d="M302 0q-79 0 -134.5 55.5t-55.5 134.5v17l-80 -14v102l80 14v62l-80 -14v103l80 14v48q0 79 55.5 134.5t134.5 55.5h132q72 0 125.5 -47.5t63.5 -118.5l-122 -33l-7 19q-10 27 -21.5 39t-32.5 12h-145q-22 0 -38 -16t-16 -39v-30l146 26v-103l-146 -27v-62l146 26v-102
l-146 -26v-46q0 -23 16 -39t38 -16h143q42 0 56 51l5 19l122 -32q-9 -72 -62.5 -119.5t-125.5 -47.5h-131z" />
    <glyph glyph-name="trademark" unicode="&#x2122;" horiz-adv-x="627" 
d="M322 427v285h51l72 -155l74 155h51v-285h-57v138l-57 -116h-21l-56 116v-138h-57zM122 427v221h-82v64h228v-64h-85v-221h-61z" />
    <glyph glyph-name="Omega" unicode="&#x2126;" horiz-adv-x="410" 
d="M152 258q-19 0 -32 12.5t-13 29.5v113q0 17 13 29.5t32 12.5h107q19 0 31.5 -12.5t12.5 -29.5v-113q0 -17 -12.5 -29.5t-31.5 -12.5h-107z" />
    <glyph glyph-name="partialdiff" unicode="&#x2202;" 
d="M287 -3q-72 0 -122.5 50t-50.5 122v189q0 63 43 105.5t105 42.5h82q29 0 55 -11.5t36 -33.5v70q0 81 -98 148l87 94q73 -61 103 -123t30 -140v-341q0 -72 -51 -122t-123 -50h-96zM315 111h72q20 0 33.5 13.5t13.5 34.5v164q0 38 -15 54t-57 16h-58q-28 0 -46 -19.5
t-18 -55.5v-135q0 -41 15.5 -56.5t59.5 -15.5z" />
    <glyph glyph-name="Delta" unicode="&#x2206;" horiz-adv-x="410" 
d="M152 258q-19 0 -32 12.5t-13 29.5v113q0 17 13 29.5t32 12.5h107q19 0 31.5 -12.5t12.5 -29.5v-113q0 -17 -12.5 -29.5t-31.5 -12.5h-107z" />
    <glyph glyph-name="product" unicode="&#x220f;" horiz-adv-x="410" 
d="M152 258q-19 0 -32 12.5t-13 29.5v113q0 17 13 29.5t32 12.5h107q19 0 31.5 -12.5t12.5 -29.5v-113q0 -17 -12.5 -29.5t-31.5 -12.5h-107z" />
    <glyph glyph-name="summation" unicode="&#x2211;" horiz-adv-x="410" 
d="M152 258q-19 0 -32 12.5t-13 29.5v113q0 17 13 29.5t32 12.5h107q19 0 31.5 -12.5t12.5 -29.5v-113q0 -17 -12.5 -29.5t-31.5 -12.5h-107z" />
    <glyph glyph-name="minus" unicode="&#x2212;" horiz-adv-x="552" 
d="M106 308v95h340v-95h-340z" />
    <glyph glyph-name="radical" unicode="&#x221a;" horiz-adv-x="410" 
d="M152 258q-19 0 -32 12.5t-13 29.5v113q0 17 13 29.5t32 12.5h107q19 0 31.5 -12.5t12.5 -29.5v-113q0 -17 -12.5 -29.5t-31.5 -12.5h-107z" />
    <glyph glyph-name="infinity" unicode="&#x221e;" horiz-adv-x="410" 
d="M152 258q-19 0 -32 12.5t-13 29.5v113q0 17 13 29.5t32 12.5h107q19 0 31.5 -12.5t12.5 -29.5v-113q0 -17 -12.5 -29.5t-31.5 -12.5h-107z" />
    <glyph glyph-name="integral" unicode="&#x222b;" 
d="M157 -204v112h87q11 0 20 11.5t9 24.5v621q0 61 42.5 104t103.5 43h95v-113h-86q-12 0 -20.5 -11t-8.5 -24v-621q0 -61 -43 -104t-104 -43h-95z" />
    <glyph glyph-name="approxequal" unicode="&#x2248;" horiz-adv-x="410" 
d="M152 258q-19 0 -32 12.5t-13 29.5v113q0 17 13 29.5t32 12.5h107q19 0 31.5 -12.5t12.5 -29.5v-113q0 -17 -12.5 -29.5t-31.5 -12.5h-107z" />
    <glyph glyph-name="notequal" unicode="&#x2260;" horiz-adv-x="552" 
d="M232 79l-93 34l38 107h-100v95h134l29 80h-163v95h196l48 134l94 -32l-36 -102h96v-95h-130l-29 -80h159v-95h-193z" />
    <glyph glyph-name="lessequal" unicode="&#x2264;" horiz-adv-x="374" 
d="M252 156q-14 0 -25 11l-117 106q-10 10 -10 25v115q0 16 10 26l117 106q11 11 25 11q13 0 26 -11l24 -23q13 -11 13 -26q0 -13 -12 -28l-99 -113l99 -111q12 -13 12 -28t-13 -26l-24 -23q-13 -11 -26 -11z" />
    <glyph glyph-name="greaterequal" unicode="&#x2265;" horiz-adv-x="374" 
d="M123 156q-16 0 -27 11l-23 23q-13 13 -13 26q0 16 11 28l100 111l-100 113q-11 14 -11 28q0 13 13 26l23 23q11 11 27 11q13 0 25 -11l116 -106q11 -10 11 -26v-115q0 -16 -11 -25l-116 -106q-12 -11 -25 -11z" />
    <glyph glyph-name="lozenge" unicode="&#x25ca;" horiz-adv-x="410" 
d="M152 258q-19 0 -32 12.5t-13 29.5v113q0 17 13 29.5t32 12.5h107q19 0 31.5 -12.5t12.5 -29.5v-113q0 -17 -12.5 -29.5t-31.5 -12.5h-107z" />
    <glyph glyph-name="fi" unicode="&#xfb01;" horiz-adv-x="810" 
d="M110 0v387h-60v113h60v65q0 61 42.5 104t103.5 43h115v-113h-106q-12 0 -20.5 -11t-8.5 -24v-64h97v-113h-97v-387h-126zM441 0v114h108v273h-93v113h219v-386h86v-114h-320zM565 599q-8 0 -14 6t-6 14v90q0 8 6 14t14 6h94q8 0 14 -6t6 -14v-90q0 -8 -6 -14t-14 -6h-94z
" />
    <glyph glyph-name="fl" unicode="&#xfb02;" horiz-adv-x="814" 
d="M441 0v114h109v485h-94v113h220v-598h84v-114h-319zM110 0v386h-60v114h60v65q0 61 42.5 104t103.5 43h115v-113h-106q-12 0 -20.5 -11t-8.5 -24v-64h97v-114h-97v-386h-126z" />
    </font>
</defs>
</svg>
